<svg xmlns="http://www.w3.org/2000/svg" xmlns:xlink="http://www.w3.org/1999/xlink" viewBox="0 0 350 330">
<!-- Comps/_SVG/illn-2 Comp1 -->
  <defs>
    <!-- Траектория полета чемодана -->
    <path id="flypath"
    d="M179,111c24.19-9.24,29.8-15.84,29.42-20.44C207.18,75.43,138.73,51.78,96,84c-2.93,2.21-31.66,24.52-29,54,3.54,39.18,59.83,61.15,75.7,67.35,53.65,20.94,94.43,8.79,101.78,27.18,2.89,7.25.78,19.69-21.48,42.47"
    fill="none" stroke="#000" stroke-miterlimit="10"/>
  </defs>
  <!-- Большой лист: слой leaf2 Outlines -->
  <g id="leaf-large">
    <!-- вращается только сам лист, без ножки, смещаем центр координат перед анимациями -->
    <g transform="translate(251.837, 190.017)">
      <!-- анимации поворота: опорная точка -25.6, 18 -->
      <animateTransform
        repeatCount="indefinite"
        dur="1.408s"
        calcMode="spline"
        attributeName="transform"
        type="rotate"
        values="4, -25.6, 18; -3, -25.6, 18; 4, -25.6, 18;"
        keySplines="0.33 0 0.67 1; 0.33 0 0.67 1"
        begin="-0.304s"
        additive="sum"/>
      <!-- смещаем центр координат обратно после анимаций -->
      <g transform="translate(-251.837, -190.017)">
        <path d="M263.47,206.82a2,2,0,0,1,3.15,2c-1,7-2.07,20.33,4.85,19.4,4.94-.66-16.65-31.53,19.32-38.16a2,2,0,0,1,2.18,2.89c-1.32,2.74-2.83,6.61-2.73,9.9a2,2,0,0,0,3.71,1c4.1-6.15,15.1-17.86,36.59-10.7a2,2,0,0,1,1.35,1.54c0.93,4.8,4.13,23.24-.29,28.72-5.09,6.31-15,4.14-16.18,10.25-1.3,6.91,7.51,4.82,13.42-.22a2,2,0,0,1,3.32,1.64c-0.25,5.45-2.18,14-11.12,18.69-13.78,7.21-23.48-7-25.19-3.88-2.59,4.66,7.94,8.47,13.78,10.18a2,2,0,0,1,.61,3.59c-10.52,7.74-29.13,10.28-37-5.41-8.3-16.59-12.93-12.49-18.19-20.38-5.71-8.57-4.33-22.54,8.38-31.05m29.4,32.47c0.5,2.73,5.2,3.51,8.35,2.94s8.47-3.83,8-6.56-6.62-3.9-9.78-3.33-7.05,4.22-6.55,6.95" fill="#e81a5a"/>
      </g>
    </g>
    <path d="M263,327.88s-4.91-70.27,5.54-80.72" fill="none" stroke="#e81a5a" stroke-miterlimit="10" stroke-width="2"/>
  </g>
  <!-- Облако слева: слой clouds2 Outlines -->
  <!-- смещаем центр координат перед анимациями -->
  <g id="cloud-left" opacity="0" transform="translate(14.130, 54.050)">
    <!-- анимации непрозрачности -->
    <animate attributeType="CSS"
      dur="0.167s"
      calcMode="spline"
      attributeName="opacity"
      values="0; 1"
      keySplines="0.33 0 0.67 1"
      fill="freeze"/>
    <animate attributeType="CSS"
      dur="0.367s"
      calcMode="spline"
      attributeName="opacity"
      values="1; 0"
      keySplines="1 0 0.83 0.83"
      begin="1s"
      fill="freeze"/>
    <!-- анимации положения -->
    <animateTransform dur="0.4s"
      calcMode="spline"
      attributeName="transform"
      type="translate"
      values="40, 0; 0, 0"
      keySplines="0.33 0 0 1"
      additive="sum"/>
    <animateTransform dur="0.367s"
      calcMode="spline"
      attributeName="transform"
      type="translate"
      values="0, 0; 0, -40"
      keySplines="1 0 0.83 0.83"
      begin="1s"
      additive="sum"
      fill="freeze"/>
    <!-- смещаем центр координат обратно после анимаций -->
    <g transform="translate(-14.130, -54.050)">
      <path d="M85.22,67.45H57.86a12.4,12.4,0,1,0-24.8,0H15.13" fill="none" stroke="#fff" stroke-linecap="round" stroke-miterlimit="10" stroke-width="2"/>
      <line x1="65.43" y1="77.72" x2="105.21" y2="77.72" fill="none" stroke="#fff" stroke-linecap="round" stroke-miterlimit="10" stroke-width="2"/>
      <line x1="93.48" y1="67.45" x2="115.68" y2="67.45" fill="none" stroke="#fff" stroke-linecap="round" stroke-miterlimit="10" stroke-width="2"/>
    </g>
  </g>
  <!-- Чемодан: слой suitcase Outlines -->
  <!-- Парашют: слой parachute Outlines -->
  <!-- Вычисляем ключевые точки перемещения чемодана -->
  <!-- Общая длительность анимации: 1738ms, начало в 366ms -->
  <!-- Общая длина траектории: 487.75 -->
  <!-- Точка 1:
    - перемещение: 179.38 110.02 -> 203.73 78.14
    - пройдено времени: 233ms // 0.134 (делим пройденное время на общую длительность, чтобы получить keyTime)
    - пройдено расстояния: 37.34 // 0.076 (делим пройденное расстояние на длину траектории, чтобы получить keyPoint)
    - изинг: 0.33 0.00 0.2 1
   -->
  <!-- Точка 2:
    - перемещение: 203.73 78.14 -> 91.38 86.02
    - пройдено времени: 709ms // 0.407
    - пройдено расстояния: 160.24 // 0.328
    - изинг: 0.60 0.00 0.83 0.59
   -->
  <!-- Точка 3:
    - перемещение: 91.38 86.02 -> 65.9 138.23
    - пройдено времени: 933ms // 0.536
    - пройдено расстояния: 224.07 // 0.459
    - изинг: 1 2.25 0.67 1 - невозможно задать значение keySplines больше 1
   -->
  <!-- Точка 4:
    - перемещение: 65.9 138.23 -> 149.38 189.02
    - пройдено времени: 1246ms // 0.716
    - пройдено расстояния: 330.39 // 0.677
    - изинг: 0.33 0.00 0.66 0.63
   -->
  <!-- Точка 5:
    - перемещение: 149.38 189.02 -> 237.38 223.02
    - пройдено времени: 1433ms // 0.824
    - пройдено расстояния: 437.95 // 0.897
    - изинг: 0.36 0.24 0.54 0.55
   -->
  <!-- Точка 6:
    - перемещение: 237.38 223.02 -> 223.38 274.02
    - пройдено времени: 1738ms // 1
    - пройдено расстояния: 487.75 // 1
    - изинг: 0.43 1.23 0.67 1 - невозможно задать значение keySplines больше 1
   -->
  <!-- смещаем весь объект перед анимацией по траектории так, чтобы его центр находился в нулевой точке координат -->
  <g id="suitcase" transform="translate(-215.38, -274.015)">
    <!-- анимация движения по траектории -->
    <animateMotion
      begin="0.366s"
      dur="1.738s"
      calcMode="spline"
      keyPoints="0; 0.07; 0.32; 0.45; 0.67; 0.89; 1"
      keyTimes="0; 0.13; 0.4; 0.53; 0.71; 0.82; 1"
      keySplines="0.33 0 0.2 1; 0.6 0 0.83 0.59; 1 1 0.67 1; 0.33 0 0.66 0.63; 0.36 0.24 0.54 0.55; 0.43 1 0.67 1"
      fill="freeze">
      <mpath href="#flypath"/>
    </animateMotion>
    <!-- группируем вместе чемодан и парашют,
      смещаем центр координат перед анимациями трансформаций,
      задаём непрозрачность, чтобы изначально чемодан был скрыт,
      делаем поворот для соответствия начальному положению согласно референсу
    -->
    <g opacity="0" transform="translate(215.38, 274.015), rotate(30)">
      <!-- анимация непрозрачности (появление чемодана) -->
      <animate attributeType="CSS"
        attributeName="opacity"
        calcMode="linear"
        values="0; 1"
        dur="0.001s"
        begin="0.366s"
        fill="freeze"/>
      <!-- анимации изменения масштаба -->
      <animateTransform
        id="suitcaseScale1"
        dur="0.233s"
        calcMode="spline"
        attributeName="transform"
        type="scale"
        values="0, 0; 0.164, 0.164"
        keySplines="0.77 0 0.67 1"
        begin="0.366s"
        additive="sum"/>
      <animateTransform
        id="suitcaseScale2"
        dur="0.7s"
        calcMode="spline"
        attributeName="transform"
        type="scale"
        values="0.164, 0.164; 0.5, 0.5"
        keySplines="0.75 0 0.67 1"
        begin="suitcaseScale1.end"
        additive="sum"/>
      <animateTransform
        dur="0.5s"
        calcMode="spline"
        attributeName="transform"
        type="scale"
        values="0.5, 0.5; 1, 1"
        keySplines="0.33 0 0.67 1"
        begin="suitcaseScale2.end"
        fill="freeze"
        additive="sum"/>
      <!-- анимации поворота -->
      <animateTransform
        id="suitcaseRotate1"
        begin="0.6s"
        dur="0.4s"
        calcMode="spline"
        attributeName="transform"
        type="rotate"
        values="0; -60"
        keySplines="0.33 0 0.67 1"
        additive="sum"/>
      <animateTransform
        id="suitcaseRotate2"
        dur="0.367s"
        calcMode="spline"
        attributeName="transform"
        type="rotate"
        values="-60; -10"
        keySplines="0.33 0 0.67 1"
        begin="suitcaseRotate1.end"
        additive="sum"/>
      <animateTransform
        id="suitcaseRotate3"
        dur="0.167s"
        calcMode="spline"
        attributeName="transform"
        type="rotate"
        values="-10; -8.29"
        keySplines="0.33 0 0.67 1"
        begin="suitcaseRotate2.end"
        additive="sum"/>
      <animateTransform
        id="suitcaseRotate4"
        dur="0.333s"
        calcMode="spline"
        attributeName="transform"
        type="rotate"
        values="-8.29; -33.06"
        keySplines="0.33 0 0.67 1"
        begin="suitcaseRotate3.end"
        additive="sum"/>
      <animateTransform
        dur="0.1s"
        calcMode="spline"
        attributeName="transform"
        type="rotate"
        values="-33.06; -30"
        keySplines="0.17 0 0.83 1"
        begin="suitcaseRotate4.end"
        fill="freeze"
        additive="sum"/>
      <!-- смещаем центр координат обратно после анимаций -->
      <g transform="translate(-215.38, -274.015)">
        <!-- чемодан -->
        <g>
          <path d="M251.89,328.88a3.54,3.54,0,0,0,3.53-3.53v-5.07a3.53,3.53,0,1,0-7.06,0v5.07a3.55,3.55,0,0,0,3.53,3.53" fill="#a67ee5"/>
          <path d="M251.89,328.88a3.54,3.54,0,0,0,3.53-3.53v-5.07a3.53,3.53,0,1,0-7.06,0v5.07A3.55,3.55,0,0,0,251.89,328.88Z" fill="none" stroke="#fff" stroke-miterlimit="10" stroke-width="2"/>
          <path d="M176.35,328.88a3.54,3.54,0,0,0,3.53-3.53v-5.07a3.53,3.53,0,1,0-7.06,0v5.07a3.54,3.54,0,0,0,3.53,3.53" fill="#a67ee5"/>
          <path d="M176.35,328.88a3.54,3.54,0,0,0,3.53-3.53v-5.07a3.53,3.53,0,1,0-7.06,0v5.07A3.54,3.54,0,0,0,176.35,328.88Z" fill="none" stroke="#fff" stroke-miterlimit="10" stroke-width="2"/>
          <path d="M170.92,320.29h74.5a11.38,11.38,0,0,0,11.35-11.35V242.86a11.38,11.38,0,0,0-11.35-11.35h-74.5a11.38,11.38,0,0,0-11.35,11.35v66.08a11.38,11.38,0,0,0,11.35,11.35" fill="#a67ee5"/>
          <rect x="159.57" y="231.51" width="97.2" height="88.78" rx="11.35" ry="11.35" fill="none" stroke="#fff" stroke-miterlimit="10" stroke-width="2"/>
          <path d="M199.26,219.15h32.4a4.09,4.09,0,0,1,4.08,4.08v16a1.19,1.19,0,0,1-1.19,1.19h-2.7a1.19,1.19,0,0,1-1.19-1.19V224.86a1.27,1.27,0,0,0-1.27-1.27H201.53a1.27,1.27,0,0,0-1.27,1.27v14.38a1.19,1.19,0,0,1-1.19,1.19h-2.7a1.19,1.19,0,0,1-1.19-1.19v-16a4.1,4.1,0,0,1,4.09-4.08" fill="#a67ee5"/>
          <path d="M199.26,219.15h32.4a4.09,4.09,0,0,1,4.08,4.08v16a1.19,1.19,0,0,1-1.19,1.19h-2.7a1.19,1.19,0,0,1-1.19-1.19V224.86a1.27,1.27,0,0,0-1.27-1.27H201.53a1.27,1.27,0,0,0-1.27,1.27v14.38a1.19,1.19,0,0,1-1.19,1.19h-2.7a1.19,1.19,0,0,1-1.19-1.19v-16A4.1,4.1,0,0,1,199.26,219.15Z" fill="none" stroke="#fff" stroke-miterlimit="10" stroke-width="2"/>
          <path d="M185.34,320.29h74.5a11.38,11.38,0,0,0,11.35-11.35V242.86a11.38,11.38,0,0,0-11.35-11.35h-74.5A11.38,11.38,0,0,0,174,242.86v66.08a11.39,11.39,0,0,0,11.35,11.35" fill="#a67ee5"/>
          <path d="M185.34,320.29h74.5a11.38,11.38,0,0,0,11.35-11.35V242.86a11.38,11.38,0,0,0-11.35-11.35h-74.5A11.38,11.38,0,0,0,174,242.86v66.08A11.39,11.39,0,0,0,185.34,320.29Z" fill="none" stroke="#fff" stroke-miterlimit="10" stroke-width="2"/>
          <line x1="254.22" y1="252.43" x2="190.97" y2="252.43" fill="none" stroke="#fff" stroke-linecap="round" stroke-miterlimit="10" stroke-width="2"/>
          <line x1="254.22" y1="275.9" x2="190.97" y2="275.9" fill="none" stroke="#fff" stroke-linecap="round" stroke-miterlimit="10" stroke-width="2"/>
          <line x1="254.22" y1="299.38" x2="190.97" y2="299.38" fill="none" stroke="#fff" stroke-linecap="round" stroke-miterlimit="10" stroke-width="2"/>
          <path d="M168.12,253.68h0.67v44.46h-0.67a3.53,3.53,0,0,1-3.52-3.51V257.2a3.52,3.52,0,0,1,3.52-3.52" fill="#a67ee5"/>
          <path d="M168.12,253.68h0.67v44.46h-0.67a3.53,3.53,0,0,1-3.52-3.51V257.2A3.52,3.52,0,0,1,168.12,253.68Z" fill="none" stroke="#fff" stroke-miterlimit="10" stroke-width="2"/>
        </g>
        <!-- стропы парашюта -->
        <line x1="215.46" y1="218.86" x2="159.87" y2="139.03" fill="none" stroke="#fff" stroke-linecap="round" stroke-linejoin="round" stroke-width="2"/>
        <line x1="215.46" y1="218.86" x2="196.93" y2="139.03" fill="none" stroke="#fff" stroke-linecap="round" stroke-linejoin="round" stroke-width="2"/>
        <line x1="233.99" y1="139.03" x2="215.46" y2="218.86" fill="none" stroke="#fff" stroke-linecap="round" stroke-linejoin="round" stroke-width="2"/>
        <line x1="271.04" y1="139.03" x2="215.46" y2="218.86" fill="none" stroke="#fff" stroke-linecap="round" stroke-linejoin="round" stroke-width="2"/>
        <!-- купол парашюта -->
        <g>
          <path d="M215.46,83.44A55.58,55.58,0,0,1,271,139c0-6.76-8.3-12.25-18.53-12.25s-18.31,5.35-18.52,12c0,0.08,0,.17,0,0.26,0-6.76-8.3-12.25-18.53-12.25s-18.54,5.49-18.54,12.25c0-.09,0-0.17,0-0.26-0.22-6.64-8.42-12-18.52-12s-18.52,5.49-18.52,12.25a55.58,55.58,0,0,1,55.59-55.59m0-1.66A57.31,57.31,0,0,0,158.22,139a1.66,1.66,0,1,0,3.32,0c0-5.84,7.57-10.59,16.87-10.59,9.11,0,16.68,4.66,16.86,10.38V139a1.66,1.66,0,0,0,3.32,0c0-5.84,7.57-10.59,16.87-10.59s16.87,4.75,16.87,10.59a1.66,1.66,0,0,0,3.32,0v-0.21c0.18-5.73,7.74-10.39,16.86-10.39,9.3,0,16.87,4.75,16.87,10.59a1.66,1.66,0,1,0,3.32,0,57.3,57.3,0,0,0-57.23-57.25" fill="#fff"/>
          <path d="M215.46,83.44c9.92,0,18,20.9,18.54,55.33,0.21-6.65,8.41-12,18.52-12S271,132.27,271,139a55.59,55.59,0,0,0-55.59-55.59" fill="#e81a5a"/>
          <path d="M215.45,83.44A55.58,55.58,0,0,0,159.87,139c0-6.76,8.3-12.25,18.52-12.25s18.3,5.35,18.52,12c0.52-34.43,8.61-55.32,18.53-55.32" fill="#fe6183"/>
          <path d="M215.46,83.44c-9.93,0-18,20.9-18.54,55.32,0,0.09,0,.17,0,0.26,0-6.76,8.3-12.25,18.53-12.25S234,132.27,234,139c0-.09,0-0.17,0-0.26-0.51-34.43-8.6-55.33-18.52-55.33" fill="#f7396b"/>
        </g>
      </g>
    </g>
  </g>
  <!-- Облака в центре и справа: слой clouds1 Outlines -->
  <g id="clouds-group" opacity="0" transform="translate(84.980, 84.046)">
    <!-- анимации непрозрачности -->
    <animate attributeType="CSS"
      dur="0.167s"
      calcMode="spline"
      attributeName="opacity"
      values="0; 1"
      keySplines="0.33 0 0.67 1"
      fill="freeze"/>
    <animate attributeType="CSS"
      dur="0.367s"
      calcMode="spline"
      attributeName="opacity"
      values="1; 0"
      keySplines="1 0 0.83 0.83"
      begin="1s"
      fill="freeze"/>
    <!-- анимации положения -->
    <animateTransform dur="0.4s"
      calcMode="spline"
      attributeName="transform"
      type="translate"
      values="90, 0; 0, 0"
      keySplines="0.33 0 0 1"
      additive="sum"/>
    <animateTransform dur="0.367s"
      calcMode="spline"
      attributeName="transform"
      type="translate"
      values="0, 0; 0, -80"
      keySplines="1 0 0.83 0.83"
      begin="1s"
      additive="sum"
      fill="freeze"/>
    <!-- смещаем центр координат обратно после анимаций -->
    <g transform="translate(-84.980, -84.046)">
      <g id="cloud-right">
        <line x1="272.13" y1="145.27" x2="311.9" y2="145.27" fill="none" stroke="#fff" stroke-linecap="round" stroke-miterlimit="10" stroke-width="2"/>
        <line x1="300.17" y1="135" x2="322.37" y2="135" fill="none" stroke="#fff" stroke-linecap="round" stroke-miterlimit="10" stroke-width="2"/>
      </g>
      <g id="cloud-center">
        <path d="M235.77,119H216.32a35.49,35.49,0,0,0-68-13.69A26.34,26.34,0,0,0,135.43,102a26.72,26.72,0,0,0-24.8,17H95.48a10.49,10.49,0,0,0,0,21h140.3a10.49,10.49,0,0,0,0-21" fill="#fff"/>
      </g>
    </g>
  </g>
  <!-- Маленький лист: слой leaf1 Outlines -->
  <!-- смещаем центр координат перед анимациями -->
  <g id="leaf-small" transform="translate(261.28, 269)">
    <!-- анимации поворота: опорная точка 5.9, 67.5 -->
    <animateTransform
      id="leafUp1"
      dur="0.467s"
      calcMode="spline"
      attributeName="transform"
      type="rotate"
      values="6, 5.9, 67.5; -4, 5.9, 67.5"
      keySplines="0.33 0 0.67 1"
      begin="0s; leafDown3.end"
      additive="sum"/>
    <animateTransform
      id="leafDown1"
      dur="0.467s"
      calcMode="spline"
      attributeName="transform"
      type="rotate"
      values="-4, 5.9, 67.5; 1, 5.9, 67.5"
      keySplines="0.33 0 0.67 1"
      begin="leafUp1.end"
      additive="sum"/>
    <animateTransform
      id="leafUp2"
      dur="0.433s"
      calcMode="spline"
      attributeName="transform"
      type="rotate"
      values="1, 5.9, 67.5; -0.5, 5.9, 67.5"
      keySplines="0.33 0 0.67 1"
      begin="leafDown1.end"
      additive="sum"/>
    <animateTransform
      id="leafDown2"
      dur="0.467s"
      calcMode="spline"
      attributeName="transform"
      type="rotate"
      values="-0.5, 5.9, 67.5; 0, 5.9, 67.5"
      keySplines="0.33 0 0.67 1"
      begin="leafUp2.end"
      additive="sum"/>
    <animateTransform
      id="leafDown3"
      dur="0.467s"
      calcMode="spline"
      attributeName="transform"
      type="rotate"
      values="0, 5.9, 67.5; 6, 5.9, 67.5"
      keySplines="0.33 0 0.67 1"
      begin="leafDown2.end"
      additive="sum"/>
    <!-- смещаем центр координат обратно после анимаций-->
    <g transform="translate(-261.28, -269)">
      <path d="M322.92,283.4a2.14,2.14,0,0,1,.55,2.17c-1.06,3.43-4.58,12.85-12.1,16.34-5.13,2.38-8.33-2.7-10.92.77s2.1,5,6.92,4.31a2.16,2.16,0,0,1,2.14,3.34A14.34,14.34,0,0,1,297.78,317c-10.84.27-12.55-11.58-14.57-10.19-2.72,1.89,1.27,6.55,4.39,9.57a2.16,2.16,0,0,1-1.3,3.71c-8.76.84-19.72-3.51-19.8-15-0.08-12.94-4.25-11.8-5.11-18.35-0.91-6.88,3.88-14.88,13.74-16.69a2.16,2.16,0,0,1,2.31,3.11c-2.41,4.73-6,12.6-2.82,12.56,3.46,0-1.58-22.58,28.43-15.26a2.16,2.16,0,0,1,1.09,3.54l-0.1.11a2.16,2.16,0,0,0,2.41,3.45c3.66-1.52,9.16-1.27,16.47,5.84" fill="#fe6183"/>
      <path d="M245.13,327.88s3.48-30.11,21.7-30.11" fill="none" stroke="#fe6183" stroke-miterlimit="10" stroke-width="2"/>
    </g>
  </g>
  <!-- Земля: слой ground Outlines -->
  <!-- сдвигаем влево, чтобы соответствовало начальному положению согласно референсу -->
  <g id="ground" transform="translate(-34.51, 0)">
    <!-- анимация смещения: разворачивается с нуля до полной ширины слева направо -->
    <animate
      id="groundExpansion"
      dur="0.167s"
      calcMode="spline"
      attributeName="stroke-dashoffset"
      values="287; 0"
      keySplines="0.33 0 0.83 0.83" />
    <!-- анимация смещения: cворачивается до конечного состояния слева направо -->
    <animate
      dur="0.233s"
      calcMode="spline"
      attributeName="stroke-dashoffset"
      values="0; -148.34"
      keySplines="0.17 0.17 0.01 1"
      begin="groundExpansion.end"
      fill="freeze" />
    <line x1="41.13" y1="329" x2="319.13" y2="329" fill="none" stroke="#fff" stroke-width="2" stroke-dasharray="287"/>
  </g>
</svg>
