<!-- <svg width="268" height="240" fill="none" xmlns="http://www.w3.org/2000/svg">
  <path d="M62.1257 222.89c-1.2082-.084-2.1292-1.144-2.0362-2.356L73.7518 27.3658c1.0984-15.4856-4.7991-21.91893-8.7449-24.47021-1.0224-.66113-.6675-2.246139.5323-2.449564C73.9968-.952515 93.1595-.884707 91.0219 29.2899L77.4103 221.763c-.0845 1.212-1.1407 2.136-2.3489 2.043l-12.9357-.916z" fill="#fff"/>
  <path d="M95.4831 223.263c-1.2166-.017-2.1883-1.017-2.1714-2.229l2.239-193.6343c.1859-15.528-6.0749-21.60531-10.1643-23.91078-1.0646-.6018-.8027-2.20377.3886-2.475 8.3563-1.898625 27.494-2.9666 27.147 27.28428l-2.247 192.9308c-.017 1.221-1.014 2.195-2.222 2.178l-12.9699-.144z" fill="#fff"/>
  <path d="M245.97 120.526h-17.118c-9.634 0-17.52-7.907-17.52-17.58V65.118c0-9.6728 7.886-17.5794 17.52-17.5794h17.118c9.635 0 17.521 7.9066 17.521 17.5794v37.828c0 9.665-7.886 17.58-17.521 17.58z" stroke="#fff" stroke-width="2"/>
  <path d="M228.482 154.913h-60.741v-14.189h55.089c5.466 0 9.902 4.45 9.902 9.934-.008 2.348-1.909 4.255-4.25 4.255zM156.453 223.407h-13.966l-6.312-41.591h13.967l6.311 41.591zM206.008 223.407h-13.967l-6.303-41.591h13.967l6.303 41.591z" fill="#A67EE5" stroke="#fff" stroke-width="2" stroke-miterlimit="10"/>
  <path d="M252.309 167.551h-55.891c-2.763 0-5.112-2.026-5.526-4.772l-10.857-72.2415c4.174-3.5006 6.717-8.8998 6.303-14.8839-.608-8.7387-7.672-15.8247-16.383-16.4265-.811-.0593-1.614-.0508-2.408 0h-55.089l-.312 102.8899 15.766 23.352 47.189 8.391c1.326.483 2.746.754 4.224.754h72.984c7.452 0 13.485-6.06 13.485-13.527 0-7.476-6.033-13.536-13.485-13.536z" fill="#A67EE5" stroke="#fff" stroke-width="2" stroke-miterlimit="10"/>
  <path d="M133.404 162.787l-10.857-72.241c4.174-3.5006 6.717-8.8998 6.303-14.8839-.608-8.7387-7.672-15.8247-16.383-16.4265-10.333-.712-18.9345 7.4844-18.9345 17.6979 0 1.8309.2788 3.5939.7857 5.2552L109.628 184.079c.913 6.06 6.1 10.544 12.209 10.544h72.984c7.452 0 13.485-6.06 13.485-13.528 0-7.476-6.041-13.527-13.485-13.527H138.93c-2.763-.017-5.112-2.043-5.526-4.781z" fill="#A67EE5" stroke="#fff" stroke-width="2" stroke-miterlimit="10"/>
  <path d="M177.238 154.913h-71.995l-2.129-14.189h68.472c5.466 0 9.902 4.45 9.902 9.934-.008 2.348-1.909 4.255-4.25 4.255z" fill="#A67EE5" stroke="#fff" stroke-width="2" stroke-miterlimit="10"/>
  <path d="M122.547 90.5375h57.488" stroke="#fff" stroke-width="2" stroke-miterlimit="10" stroke-linecap="round"/>
  <path d="M50.1628 89.071c10.3501 13.753 15.5889 26.951 15.5892 26.924-.026-.007-9.8805-10.007-20.0767-23.5528-10.1723-13.5713-17.0656-25.8608-17.067-25.8819-.026-.0068 11.2265 8.7395 21.5545 22.5107zM51.9217 109.489c13.717 9.539 22.8115 20.511 22.7972 20.486-.0188.006-12.308-6.27-25.8398-15.708-13.5145-9.465-23.4122-18.6754-23.416-18.7007-.0229.0079 12.7525 4.3565 26.4586 13.9227z" fill="#36E69A"/>
  <path d="M64.6397 100.581c4.5676 16.471 10.0591 29.379 10.0792 29.394-.018.017.0967-13.847-4.4973-30.5216-4.5622-16.6772-12.0748-29.4609-12.0547-29.4452-.0139.0136 1.9368 14.1004 6.4728 30.5728z" fill="#36E69A"/>
  <path d="M78.2976 108.621c.0956 16.905 2.0515 30.654 2.0611 30.67-.0253.004 3.7837-13.013 3.7619-30.054.0083-17.0371-3.9654-31.378-3.9575-31.3551-.0188.0055-1.9287 13.8436-1.8655 30.7391z" fill="#25B774"/>
  <path d="M54.0653 124.656c15.1507 6.039 26.3119 14.657 26.2934 14.635-.0075.015-13.1664-3.197-28.1708-9.239-14.9934-6.071-26.3546-12.676-26.3683-12.69-.014.013 13.0993 1.224 28.2457 7.294zM59.0439 138.93c15.5918 4.071 27.5734 11.22 27.5556 11.209-.0027.023-13.3083-1.46-28.7838-5.605-15.4729-4.17-27.4089-9.318-27.4185-9.334-.0067.026 13.0592-.372 28.6467 3.73zM89.696 119.886c-2.7638 16.471-3.0979 30.231-3.0948 30.246-.0235-.003 5.9361-11.994 8.8243-28.543 2.9124-16.535 1.4159-31.2065 1.4214-31.1878-.0277-.0002-4.3588 13.0258-7.1509 29.4848z" fill="#25B774"/>
  <path d="M69.8408 157.14c15.4111 4.711 27.0834 12.354 27.0697 12.34-.0027.023-13.239-2.017-28.529-6.793-15.2898-4.804-26.9946-10.439-27.0042-10.455-.0067.026 13.0568.167 28.4635 4.908z" fill="#068E4D"/>
  <path d="M101.254 139.387c-3.4436 16.341-4.3466 30.078-4.3411 30.097-.0235-.003 6.4311-11.74 9.9951-28.158 3.595-16.402 2.706-31.116 2.711-31.097-.024-.003-4.893 12.828-8.365 29.158zM79.8784 175.79c15.2027 5.349 26.5566 13.481 26.5436 13.467-.006.019-13.1466-2.571-28.23-7.979-15.0814-5.443-26.5437-11.555-26.5533-11.571-.0068.025 13.0414.704 28.2397 6.083z" fill="#068E4D"/>
  <path d="M111.998 159.354c-4.117 16.186-5.586 29.887-5.579 29.899-.026-.007 6.906-11.475 11.148-27.729 4.268-16.247 3.994-30.981 3.993-30.964-.024-.003-5.419 12.614-9.562 28.794z" fill="#068E4D"/>
  <path d="M63.5976 112.768c23.1814 34.376 42.2784 71.413 56.8604 110.366" stroke="#36E69A" stroke-width="2" stroke-miterlimit="10" stroke-linecap="round" stroke-linejoin="round"/>
  <path d="M43.0092 224.097H266.5" stroke="#fff" stroke-width="2" stroke-miterlimit="10" stroke-linecap="round"/>
</svg> -->
<svg xmlns="http://www.w3.org/2000/svg" xmlns:xlink="http://www.w3.org/1999/xlink" viewBox="0 0 350 330">
  <g id="dirigible">
    <g id="basket">
        <animateTransform dur="1s"
              repeatCount="indefinite"
              calcMode="spline"
              attributeName="transform"
              type="translate"
              values="0, -0.25; 0, 0; 0, -0.25"
              keySplines="0.33 0 0.67 1; 0.33 0 0.67 1"
               additive="sum"/>
      <animateTransform dur="1s"
        repeatCount="indefinite"
        calcMode="spline"
        attributeName="transform"
        type="scale"
        values="1, 0.95; 1, 1; 1, 0.95"
        keySplines="0.33 0 0.67 1; 0.33 0 0.67 1"
        additive="sum"/>
      <animateTransform dur="1s"
            repeatCount="indefinite"
            calcMode="spline"
            attributeName="transform"
            type="skewX"
            values="-4; 0; -4"
            keySplines="0.33 0 0.67 1; 0.33 0 0.67 1"
          additive="sum"/>
      <path d="M175.44,249.28h48.36a13.27,13.27,0,0,0,13-10.65l3.74-18.32H172.36v25.89A3.09,3.09,0,0,0,175.44,249.28Z" fill="none" stroke="#fff" stroke-linecap="round" stroke-linejoin="round" stroke-width="2"/>
      <path d="M235.79,241.69h-9.22a8.31,8.31,0,0,1-8.28-8.31V220.31" fill="none" stroke="#fff" stroke-linecap="round" stroke-miterlimit="10" stroke-width="2"/>
      <path d="M204.25,231.88h-2.05a3.45,3.45,0,0,0-3.43,3.45v2.92a3.45,3.45,0,0,0,3.43,3.45h2.05a3.45,3.45,0,0,0,3.43-3.45v-2.92A3.44,3.44,0,0,0,204.25,231.88Z" fill="none" stroke="#fff" stroke-linecap="round" stroke-linejoin="round" stroke-width="2"/>
      <path d="M185.64,231.88h-2.05a3.45,3.45,0,0,0-3.43,3.45v2.92a3.45,3.45,0,0,0,3.43,3.45h2.05a3.45,3.45,0,0,0,3.43-3.45v-2.92A3.45,3.45,0,0,0,185.64,231.88Z" fill="none" stroke="#fff" stroke-linecap="round" stroke-linejoin="round" stroke-width="2"/>
    </g>
    <g id="baloon">
      <path d="M205,227.08c43.38,0,74.86-15.55,74.86-37s-31.48-37-74.86-37c-27.94,0-55.36,13.53-73.46,24.87a14.3,14.3,0,0,0,0,24.21c18.09,11.33,45.52,24.87,73.46,24.87" fill="#36e69a"/>
      <path d="M205,227.08c43.38,0,74.86-15.55,74.86-37s-31.48-37-74.86-37c-27.94,0-55.36,13.53-73.46,24.87a14.3,14.3,0,0,0,0,24.21C149.63,213.54,177.06,227.08,205,227.08Z" fill="none" stroke="#fff" stroke-width="2"/>
      <path d="M205,176.09c-28.23,0-56.07,5.76-72.81,10-3.95,1-6,2.66-6.08,4.34A12.93,12.93,0,0,1,132.18,179c16.74-10.5,44.58-24.68,72.81-24.68,44.81,0,73.64,16,73.64,35.75,0,0.12,0,.24,0,0.37-0.37-7.95-29.1-14.37-73.63-14.37" fill="#36e69a"/>
      <path d="M132.18,195.12c16.74,4.27,44.58,10,72.81,10,44.14,0,72.75-6.32,73.6-14.18-0.86,19.34-29.45,34.86-73.6,34.86-28.23,0-56.07-14.19-72.81-24.68a12.88,12.88,0,0,1-6-10.18c0.26,1.61,2.26,3.18,6,4.14" fill="#068e4d"/>

      <path d="M132.18,186.12c16.74-4.27,44.58-10,72.81-10,44.53,0,73.26,6.43,73.61,14.38,0,0.17,0,.34,0,0.51-0.85,7.86-29.45,14.17-73.6,14.17-28.23,0-56.07-5.76-72.81-10-3.79-1-5.79-2.53-6-4.13l0-.51c0.13-1.69,2.15-3.36,6.1-4.37" fill="#25b774">
          <animate
      attributeName="d"
attributeType="XML"
      values="
      M132.18,186.12c16.74-4.27,44.58-10,72.81-10,44.53,0,73.26,6.43,73.61,14.38,0,0.17,0,.34,0,0.51-0.85,7.86-29.45,14.17-73.6,14.17-28.23,0-56.07-5.76-72.81-10-3.79-1-5.79-2.53-6-4.13l0-.51c0.13-1.69,2.15-3.36,6.1-4.37;
      M 132.18 186.12 C 148.92 181.85 176.947 179.31 205.177 179.31 C 249.707 179.31 278.25 182.55 278.6 190.5 C 278.6 190.67 278.6 190.84 278.6 191.01 C 277.75 198.87 249.337 208.37 205.187 208.37 C 176.957 208.37 147.81 201.235 132.19 195.18 C 128.4 194.18 126.4 192.65 126.19 191.05 L 126.19 190.54 C 126.32 188.85 128.34 187.18 132.29 186.17;
      M132.18,186.12c16.74-4.27,44.58-10,72.81-10,44.53,0,73.26,6.43,73.61,14.38,0,0.17,0,.34,0,0.51-0.85,7.86-29.45,14.17-73.6,14.17-28.23,0-56.07-5.76-72.81-10-3.79-1-5.79-2.53-6-4.13l0-.51c0.13-1.69,2.15-3.36,6.1-4.37;
      "
    dur="2s" repeatCount="indefinite" calcMode="spline"
                                              keySplines="0.33 0 0.67 1; 0.33 0 0.67 1" />
  />
      </path>
    </g>
 <g id="tail">
    <path d="M123.23,173.34h9.16a3.29,3.29,0,0,1,3.29,3.3v5.71a3.29,3.29,0,0,1-3.29,3.3H115.57a1.32,1.32,0,0,1-1.32-1.32v-2a9,9,0,0,1,9-9" fill="#068e4d"/>
    <path d="M123.23,173.34h9.16a3.29,3.29,0,0,1,3.29,3.3v5.71a3.29,3.29,0,0,1-3.29,3.3H115.57a1.32,1.32,0,0,1-1.32-1.32v-2A9,9,0,0,1,123.23,173.34Z" fill="none" stroke="#fff" stroke-linecap="round" stroke-linejoin="round" stroke-width="2"/>
    <path d="M123.23,207.39h9.16a3.29,3.29,0,0,0,3.29-3.3v-5.71a3.29,3.29,0,0,0-3.29-3.3H115.57a1.32,1.32,0,0,0-1.32,1.32v2a9,9,0,0,0,9,9" fill="#068e4d"/>
    <path d="M123.23,207.39h9.16a3.29,3.29,0,0,0,3.29-3.3v-5.71a3.29,3.29,0,0,0-3.29-3.3H115.57a1.32,1.32,0,0,0-1.32,1.32v2A9,9,0,0,0,123.23,207.39Z" fill="none" stroke="#fff" stroke-linecap="round" stroke-linejoin="round" stroke-width="2"/>
    <path d="M123.23,173.34h9.16a3.29,3.29,0,0,1,3.29,3.3v5.71a3.29,3.29,0,0,1-3.29,3.3H115.57a1.32,1.32,0,0,1-1.32-1.32v-2a9,9,0,0,1,9-9" fill="#068e4d"/>
    <path d="M123.23,173.34h9.16a3.29,3.29,0,0,1,3.29,3.3v5.71a3.29,3.29,0,0,1-3.29,3.3H115.57a1.32,1.32,0,0,1-1.32-1.32v-2A9,9,0,0,1,123.23,173.34Z" fill="none" stroke="#fff" stroke-linecap="round" stroke-linejoin="round" stroke-width="2"/>
    <path d="M123.23,207.39h9.16a3.29,3.29,0,0,0,3.29-3.3v-5.71a3.29,3.29,0,0,0-3.29-3.3H115.57a1.32,1.32,0,0,0-1.32,1.32v2a9,9,0,0,0,9,9" fill="#068e4d"/>
    <path d="M123.23,207.39h9.16a3.29,3.29,0,0,0,3.29-3.3v-5.71a3.29,3.29,0,0,0-3.29-3.3H115.57a1.32,1.32,0,0,0-1.32,1.32v2A9,9,0,0,0,123.23,207.39Z" fill="none" stroke="#fff" stroke-linecap="round" stroke-linejoin="round" stroke-width="2"/>
   </g>
  </g>

  <g id="cloud-1">
    <line x1="68.95" y1="107.8" x2="131.86" y2="107.8" fill="none" stroke="#fff" stroke-linecap="round" stroke-miterlimit="10" stroke-width="2"/>
    <g>
      <path d="M41.77,97.54H77.06a12.4,12.4,0,1,1,24.8,0h17.93" fill="none" stroke="#fff" stroke-linecap="round" stroke-miterlimit="10" stroke-width="2"/>
    </g>
  </g>

  <g id="cloud-2">
    <line x1="258.96" y1="93.19" x2="298.74" y2="93.19" fill="none" stroke="#fff" stroke-linecap="round" stroke-miterlimit="10" stroke-width="2"/>
    <g>
      <path d="M278.75,82.91H251.39a12.4,12.4,0,1,0-24.8,0H208.65" fill="none" stroke="#fff" stroke-linecap="round" stroke-miterlimit="10" stroke-width="2"/>
      <line x1="287.01" y1="82.91" x2="309.21" y2="82.91" fill="none" stroke="#fff" stroke-linecap="round" stroke-miterlimit="10" stroke-width="2"/>
    </g>
  </g>

  <g id="exhaust">
    <line x1="106.25" y1="179.49" x2="84.05" y2="179.49" fill="none" stroke="#fff" stroke-linecap="round" stroke-miterlimit="10" stroke-width="2"/>
    <line x1="106.25" y1="201.23" x2="84.05" y2="201.23" fill="none" stroke="#fff" stroke-linecap="round" stroke-miterlimit="10" stroke-width="2"/>
    <line x1="106.25" y1="190.98" x2="68.77" y2="190.98" fill="none" stroke="#fff" stroke-linecap="round" stroke-miterlimit="10" stroke-width="2"/>
  </g>

  <g id="ground">
    <path d="M289.94,327.88H244.88L212.8,296.58a1.89,1.89,0,0,0-2.44,0l-10.2,10.23a1.72,1.72,0,0,1-2.25,0l-19-20.17a2.4,2.4,0,0,0-3.1,0l-26.42,25.64a1.71,1.71,0,0,1-2.25,0l-2.63-2.92a1.71,1.71,0,0,0-2.31,0L124.63,329H80.78" fill="none" stroke="#fff" stroke-linecap="round" stroke-miterlimit="10" stroke-width="2"/>
    <path d="M289.94,328H200.15c-0.86,0-1.56,0-2.25,0h-19c-1.5,0-2.23,0-3.1,0h-32.3c-1.09,0-1.66,0-2.31,0H80.78" fill="none" stroke="#fff" stroke-linecap="round" stroke-miterlimit="10" stroke-width="2"/>
  </g>
</svg>
