<svg xmlns="http://www.w3.org/2000/svg" xmlns:xlink="http://www.w3.org/1999/xlink" viewBox="0 0 350 330">
<!-- композиция из AE: Comps/_SVG/illn-1 Comp1 -->
  <defs>
    <!-- область отсечения в виде окна -->
    <clipPath id="window">
      <path d="M275,225.43H257.87a17.6,17.6,0,0,1-17.52-17.58V170a17.6,17.6,0,0,1,17.52-17.58H275A17.6,17.6,0,0,1,292.51,170v37.83A17.61,17.61,0,0,1,275,225.43Z" stroke="red" stroke-linecap="round" stroke-miterlimit="10" stroke-width="2"/>
    </clipPath>
  </defs>
  <!-- Облака, летящие в окне: композиция Comps/_SVG/Cloudes -->
  <g clip-path="url(#window)">
    <g id="clouds-window" transform="translate(220 171), scale(0.5)">
      <!-- нижнее облако (слой clouds 2 Outlines) -->
      <g id="cloud-window-bottom" transform="translate(166.88, 0)">
        <!-- анимация положения из АЕ: 288.82 → 49.82 | 105.45 → 105.45, 2000ms, Linear -->
        <!-- задержка между повтором анимации: 967ms -->
        <animateTransform
          id="cloudBottomAnimation"
          dur="2s"
          calcMode="linear"
          attributeName="transform"
          type="translate"
          values="0, 0; -239, 0"
          begin="2.666s; cloudBottomAnimation.end+0.967s"
          additive="sum"/>
        <!-- линия под облаком -->
        <g>
          <!-- анимация положения из АЕ: 0 → 20, 2000ms, Linear -->
          <animateTransform
            dur="2s"
            calcMode="linear"
            attributeName="transform"
            type="translate"
            values="-15, 0; 0, 0"
            begin="2.666s; cloudBottomAnimation.end+0.967s"
            additive="sum"/>
          <line x1="28.18" y1="38.34" x2="91.09" y2="38.34" fill="none" stroke="#fff" stroke-linecap="round" stroke-miterlimit="10" stroke-width="2"/>
        </g>
        <path d="M41.77,97.54H77.06a12.4,12.4,0,1,1,24.8,0h17.93" transform="translate(-40.77 -69.46)" fill="none" stroke="#fff" stroke-linecap="round" stroke-miterlimit="10" stroke-width="2"/>
      </g>
      <!-- верхнее облако (слой clouds 1 Outlines) -->
      <g id="cloud-window-top">
        <!-- анимация положения из АЕ: 288.82 → 49.82 | 76.45 → 76.45, 2000ms, Linear -->
        <animateTransform
          id="cloudTopAnimation"
          dur="2s"
          calcMode="linear"
          attributeName="transform"
          type="translate"
          values="0, 0; -239, 0"
          begin="4.130s; cloudTopAnimation.end+0.967s"
          additive="sum"/>
        <!-- линия под облаком -->
        <g>
          <!-- анимация положения из АЕ: 0 → 20, 2000ms, Linear -->
          <animateTransform
            dur="2s"
            calcMode="linear"
            attributeName="transform"
            type="translate"
            values="-20, 0; 0, 0"
            begin="4.130s; cloudTopAnimation.end+0.967s"
            additive="sum"/>
          <line x1="218.19" y1="23.72" x2="257.97" y2="23.72" fill="none" stroke="#fff" stroke-linecap="round" stroke-miterlimit="10" stroke-width="2"/>
        </g>
        <path d="M278.75,82.91H251.39a12.4,12.4,0,1,0-24.8,0H208.65" transform="translate(-40.77 -69.46)" fill="none" stroke="#fff" stroke-linecap="round" stroke-miterlimit="10" stroke-width="2"/>
        <line x1="246.24" y1="13.45" x2="268.43" y2="13.45" fill="none" stroke="#fff" stroke-linecap="round" stroke-miterlimit="10" stroke-width="2"/>
      </g>
    </g>
  </g>
  <!-- Дирижабль: слой dirigibleOutlines -->
  <!-- общая длительность анимации всех элементов дирижабля из AE: 4000ms -->
  <g id="dirigible" >
    <!-- анимация непрозрачности из AE: 100 → 0%, 500ms, (0.33, 0.00, 0.67, 1.00) -->
    <animate attributeType="CSS"
      attributeName="opacity"
      calcMode="spline"
      values="1; 0"
      keySplines="0.33 0 0.67 1"
      dur="0.5s"
      begin="2.5s"
      fill="freeze" />
    <!-- гондола (Group 9) -->
    <!-- сдвигаем transform-origin перед тем, как задавать анимации (чтобы избежать искажений при трансформациях масштаба) -->
    <!-- для этого сдвигаем гондолу вправо и вниз, чтобы точка [0,0] совместилось с центром координат гондолы -->
    <g id="basket" transform="translate(171.360, 219.310)">
      <!-- анимация положения из АЕ: 97.21 → 97.21 | 81.15 → 83.65, 500ms, (0.33, 0.00, 0.67, 1.00) -->
      <animateTransform dur="1s"
        repeatCount="4"
        calcMode="spline"
        attributeName="transform"
        type="translate"
        values="0, -2.5; 0, 0; 0, -2.5"
        keySplines="0.33 0 0.67 1; 0.33 0 0.67 1"
        fill="freeze"
        additive="sum"/>
      <!-- анимация масштаба из АЕ: 100,95% → 100,100% → 100,80% → 100,100%, 1000ms, (0.33, 0.00, 0.67, 1.00) -->
      <animateTransform dur="2s"
        repeatCount="2"
        calcMode="spline"
        attributeName="transform"
        type="scale"
        values="1, 0.95; 1, 1; 1, 0.80; 1, 1; 1, 0.95;"
        keySplines="0.33 0 0.67 1; 0.33 0 0.67 1; 0.33 0 0.67 1; 0.33 0 0.67 1"
        fill="freeze"
        additive="sum"/>
      <!-- анимация наклона из АЕ: -4 → 0, 500ms, (0.33, 0.00, 0.67, 1.00) -->
      <animateTransform dur="1s"
        repeatCount="4"
        calcMode="spline"
        attributeName="transform"
        type="skewX"
        values="4; 0; 4"
        keySplines="0.33 0 0.67 1; 0.33 0 0.67 1"
        fill="freeze"
        additive="sum"/>
      <!-- после анимаций сдвигаем центр координат гондолы обратно -->
      <g transform="translate(-171.360, -219.310)">
        <path d="M175.44,249.28h48.36a13.27,13.27,0,0,0,13-10.65l3.74-18.32H172.36v25.89A3.09,3.09,0,0,0,175.44,249.28Z" fill="none" stroke="#fff" stroke-linecap="round" stroke-linejoin="round" stroke-width="2"/>
        <path d="M235.79,241.69h-9.22a8.31,8.31,0,0,1-8.28-8.31V220.31" fill="none" stroke="#fff" stroke-linecap="round" stroke-miterlimit="10" stroke-width="2"/>
        <!-- увеличивающееся исчезающее окно (слой window) -->
        <!-- сдвигаем transform-origin перед тем, как задавать анимации (чтобы избежать искажений при трансформациях масштаба) -->
        <g id="window-zoom" transform="translate(197.77, 230.880)">
          <!-- анимация непрозрачности из AE: 100 → 0%, 100ms -->
          <animate attributeType="CSS"
            attributeName="opacity"
            calcMode="linear"
            values="1; 0"
            dur="0.1s"
            begin="2.567s"
            fill="freeze"/>
          <!-- анимация положения из АЕ: 203.17 → 266.17 | 236.83 → 190.83, 467ms, (0.33, 0.00, 0.00, 1.00) -->
          <animateTransform dur="0.467s"
            calcMode="spline"
            attributeName="transform"
            type="translate"
            values="0, 0; 60, -46"
            keySplines="0.33 0 0 1"
            begin="2.5s"
            fill="freeze"
            additive="sum"/>
          <!-- анимация масштаба из АЕ: 100 → 587.86% | 100 → 730.3%, 467ms, (0.33, 0.00, 0.00, 1.00) -->
          <animateTransform dur="0.467s"
            calcMode="spline"
            attributeName="transform"
            type="scale"
            values="1, 1; 5.878, 7.303"
            keySplines="0.33 0 0 1"
            begin="2.5s"
            fill="freeze"
            additive="sum"/>
          <!-- после анимаций сдвигаем центр координат окна обратно -->
          <g transform="translate(-197.77, -230.880)">
            <path d="M204.25,231.88h-2.05a3.45,3.45,0,0,0-3.43,3.45v2.92a3.45,3.45,0,0,0,3.43,3.45h2.05a3.45,3.45,0,0,0,3.43-3.45v-2.92A3.44,3.44,0,0,0,204.25,231.88Z" fill="none" stroke="#fff" stroke-linecap="round" stroke-linejoin="round" stroke-width="2"/>
          </g>
        </g>
        <path d="M185.64,231.88h-2.05a3.45,3.45,0,0,0-3.43,3.45v2.92a3.45,3.45,0,0,0,3.43,3.45h2.05a3.45,3.45,0,0,0,3.43-3.45v-2.92A3.45,3.45,0,0,0,185.64,231.88Z" fill="none" stroke="#fff" stroke-linecap="round" stroke-linejoin="round" stroke-width="2"/>
      </g>
    </g>
    <!-- хвост (задний план) (Group 3 и 4) -->
    <!-- сдвигаем хвост вниз, чтобы совпадало с положением на шаре при смещении -->
    <g id="tail-back" transform="translate(0, 2.5)">
      <!-- анимация положения из АЕ: 15.72 → 15.72 | 52.59 → 47.59 (нижний) и 15.72 → 15.72 | 30.85 → 25.85 (верхний), 1000ms, (0.60, 0.00, 0.40, 1.00) -->
      <animateTransform dur="2s"
        repeatCount="2"
        calcMode="spline"
        attributeName="transform"
        type="translate"
        values="0, 0; 0, -5; 0, 0"
        keySplines="0.60 0 0.40 1; 0.60 0 0.40 1"
        fill="freeze"
        additive="sum"
      />
      <path d="M123.23,173.34h9.16a3.29,3.29,0,0,1,3.29,3.3v5.71a3.29,3.29,0,0,1-3.29,3.3H115.57a1.32,1.32,0,0,1-1.32-1.32v-2a9,9,0,0,1,9-9" fill="#068e4d"/>
      <path d="M123.23,173.34h9.16a3.29,3.29,0,0,1,3.29,3.3v5.71a3.29,3.29,0,0,1-3.29,3.3H115.57a1.32,1.32,0,0,1-1.32-1.32v-2A9,9,0,0,1,123.23,173.34Z" fill="none" stroke="#fff" stroke-linecap="round" stroke-linejoin="round" stroke-width="2"/>
      <path d="M123.23,207.39h9.16a3.29,3.29,0,0,0,3.29-3.3v-5.71a3.29,3.29,0,0,0-3.29-3.3H115.57a1.32,1.32,0,0,0-1.32,1.32v2a9,9,0,0,0,9,9" fill="#068e4d"/>
      <path d="M123.23,207.39h9.16a3.29,3.29,0,0,0,3.29-3.3v-5.71a3.29,3.29,0,0,0-3.29-3.3H115.57a1.32,1.32,0,0,0-1.32,1.32v2A9,9,0,0,0,123.23,207.39Z" fill="none" stroke="#fff" stroke-linecap="round" stroke-linejoin="round" stroke-width="2"/>
    </g>
    <!-- баллон (Group 5) -->
    <g id="baloon">
      <path d="M205,227.08c43.38,0,74.86-15.55,74.86-37s-31.48-37-74.86-37c-27.94,0-55.36,13.53-73.46,24.87a14.3,14.3,0,0,0,0,24.21c18.09,11.33,45.52,24.87,73.46,24.87" fill="#36e69a"/>
      <path d="M205,227.08c43.38,0,74.86-15.55,74.86-37s-31.48-37-74.86-37c-27.94,0-55.36,13.53-73.46,24.87a14.3,14.3,0,0,0,0,24.21C149.63,213.54,177.06,227.08,205,227.08Z" fill="none" stroke="#fff" stroke-width="2"/>
      <path d="M205,176.09c-28.23,0-56.07,5.76-72.81,10-3.95,1-6,2.66-6.08,4.34A12.93,12.93,0,0,1,132.18,179c16.74-10.5,44.58-24.68,72.81-24.68,44.81,0,73.64,16,73.64,35.75,0,0.12,0,.24,0,0.37-0.37-7.95-29.1-14.37-73.63-14.37" fill="#36e69a"/>
      <path d="M132.18,195.12c16.74,4.27,44.58,10,72.81,10,44.14,0,72.75-6.32,73.6-14.18-0.86,19.34-29.45,34.86-73.6,34.86-28.23,0-56.07-14.19-72.81-24.68a12.88,12.88,0,0,1-6-10.18c0.26,1.61,2.26,3.18,6,4.14" fill="#068e4d"/>
      <path d="M132.18,186.12c16.74-4.27,44.58-10,72.81-10,44.53,0,73.26,6.43,73.61,14.38,0,0.17,0,.34,0,0.51-0.85,7.86-29.45,14.17-73.6,14.17-28.23,0-56.07-5.76-72.81-10-3.79-1-5.79-2.53-6-4.13l0-.51c0.13-1.69,2.15-3.36,6.1-4.37" fill="#25b774">
        <!-- морфинг контура: 1000ms -->
        <animate
          attributeName="d"
          attributeType="XML"
          values="
            M132.18,186.12c16.74-4.27,44.58-10,72.81-10,44.53,0,73.26,6.43,73.61,14.38,0,0.17,0,.34,0,0.51-0.85,7.86-29.45,14.17-73.6,14.17-28.23,0-56.07-5.76-72.81-10-3.79-1-5.79-2.53-6-4.13l0-.51c0.13-1.69,2.15-3.36,6.1-4.37;
            M 132.18 186.12 C 148.92 181.85 177.02 180.034 205.25 180.034 C 249.78 180.034 278.25 182.55 278.6 190.5 C 278.6 190.67 278.6 190.84 278.6 191.01 C 277.75 198.87 249.261 209.458 205.111 209.458 C 176.881 209.458 148.93 199.42 132.19 195.18 C 128.4 194.18 126.4 192.65 126.19 191.05 L 126.19 190.54 C 126.32 188.85 128.34 187.18 132.29 186.17;
            M132.18,186.12c16.74-4.27,44.58-10,72.81-10,44.53,0,73.26,6.43,73.61,14.38,0,0.17,0,.34,0,0.51-0.85,7.86-29.45,14.17-73.6,14.17-28.23,0-56.07-5.76-72.81-10-3.79-1-5.79-2.53-6-4.13l0-.51c0.13-1.69,2.15-3.36,6.1-4.37;
            "
          dur="2s"
          repeatCount="2"
          calcMode="spline"
          keySplines="0.33 0 0.67 1; 0.33 0 0.67 1" />
        />
      </path>
    </g>
    <!-- хвост (передний план) (Group 1 и 2) -->
    <!-- сдвигаем хвост вниз, чтобы совпадало с положением на шаре при смещении -->
    <g id="tail-front" transform="translate(0, 2.5)">
      <!-- анимация положения из АЕ: 15.72 → 15.72 | 47.59 → 52.59 (нижний) и 15.72 → 15.72 | 25.85 → 30.85 (верхний), 1000ms, (0.60, 0.00, 0.40, 1.00) -->
      <animateTransform dur="2s"
        repeatCount="2"
        calcMode="spline"
        attributeName="transform"
        type="translate"
        values="0, -5; 0, 0; 0, -5"
        keySplines="0.60 0 0.40 1; 0.60 0 0.40 1"
        fill="freeze"
        additive="sum"
      />
      <path d="M123.23,173.34h9.16a3.29,3.29,0,0,1,3.29,3.3v5.71a3.29,3.29,0,0,1-3.29,3.3H115.57a1.32,1.32,0,0,1-1.32-1.32v-2a9,9,0,0,1,9-9" fill="#068e4d"/>
      <path d="M123.23,173.34h9.16a3.29,3.29,0,0,1,3.29,3.3v5.71a3.29,3.29,0,0,1-3.29,3.3H115.57a1.32,1.32,0,0,1-1.32-1.32v-2A9,9,0,0,1,123.23,173.34Z" fill="none" stroke="#fff" stroke-linecap="round" stroke-linejoin="round" stroke-width="2"/>
      <path d="M123.23,207.39h9.16a3.29,3.29,0,0,0,3.29-3.3v-5.71a3.29,3.29,0,0,0-3.29-3.3H115.57a1.32,1.32,0,0,0-1.32,1.32v2a9,9,0,0,0,9,9" fill="#068e4d"/>
      <path d="M123.23,207.39h9.16a3.29,3.29,0,0,0,3.29-3.3v-5.71a3.29,3.29,0,0,0-3.29-3.3H115.57a1.32,1.32,0,0,0-1.32,1.32v2A9,9,0,0,0,123.23,207.39Z" fill="none" stroke="#fff" stroke-linecap="round" stroke-linejoin="round" stroke-width="2"/>
    </g>
  </g>
  <!-- Окно: слой window Outlines -->
  <!-- сдвигаем transform-origin перед тем, как задавать анимации (чтобы избежать искажений при трансформациях масштаба) -->
  <g id="window" opacity="0" transform="translate(239.35, 151.420)">
    <animate attributeType="CSS"
      attributeName="opacity"
      calcMode="linear"
      values="0; 1"
      dur="0.1s"
      begin="2.5s"
      fill="freeze" />
    <animateTransform dur="0.467s"
      calcMode="spline"
      attributeName="transform"
      type="translate"
      values="-41.58, 79.46; 0, 0"
      keySplines="0.33 0 0 1"
      begin="2.5s"
      fill="freeze"
      additive="sum"/>
    <animateTransform dur="0.467s"
      calcMode="spline"
      attributeName="transform"
      type="scale"
      values="0.144, 0.133; 1, 1"
      keySplines="0.33 0 0 1"
      begin="2.5s"
      fill="freeze"
      additive="sum"
    />
    <!-- после анимаций сдвигаем центр координат окна обратно -->
    <g transform="translate(-239.35, -151.420)">
      <path d="M275,225.43H257.87a17.6,17.6,0,0,1-17.52-17.58V170a17.6,17.6,0,0,1,17.52-17.58H275A17.6,17.6,0,0,1,292.51,170v37.83A17.61,17.61,0,0,1,275,225.43Z" fill="none" stroke="#fff" stroke-width="2"/>
    </g>
  </g>
  <!-- Облака: композиция Comps/_SVG/Cloudes -->
  <g id="clouds" >
    <!-- анимация непрозрачности из AE: 100 → 0%, 500ms, (0.33, 0.00, 0.67, 1.00) -->
    <animate attributeType="CSS"
      attributeName="opacity"
      calcMode="spline"
      values="1; 0"
      keySplines="0.33 0 0.67 1"
      dur="0.5s"
      begin="2.5s"
      fill="freeze"/>
    <!-- нижнее облако (слой clouds 2 Outlines) -->
    <!-- сдвигаем в исходную точку движения Х=239, согласно референсу -->
    <g id="cloud-bottom" transform="translate(198.23, 0)">
      <!-- анимация непрозрачности (исчезание) из AE: 0 → 100%, 167ms, (0.33, 0.00, 0.67, 1.00) -->
      <animate attributeType="CSS"
        attributeName="opacity"
        calcMode="spline"
        values="1; 0"
        keySplines="0.33 0 0.67 1"
        dur="0.167s"
        begin="1.866s"
        fill="freeze"
      />
      <g opacity="0">
        <!-- анимация непрозрачности (появление) из AE: 0 → 100%, 167ms, (0.33, 0.00, 0.67, 1.00) -->
        <animate attributeType="CSS"
          attributeName="opacity"
          calcMode="spline"
          values="0; 1"
          keySplines="0.33 0 0.67 1"
          dur="0.167s"
          begin="0.2s"
          additive="sum"
          fill="freeze"
        />
        <!-- анимация положения из АЕ: 288.82 → 49.82 | 105.45 → 105.45, 2000ms, Linear -->
        <animateTransform
          dur="2s"
          calcMode="linear"
          attributeName="transform"
          type="translate"
          values="0, 0; -239, 0"
          begin="0.03s"
          additive="sum"/>
        <!-- линия под облаком -->
        <g>
          <!-- анимация положения из АЕ: 0 → 20, 2000ms, Linear -->
          <animateTransform
            dur="2s"
            begin="0.03s"
            calcMode="linear"
            attributeName="transform"
            type="translate"
            values="-15, 0; 0, 0"
            additive="sum"/>
          <line x1="68.95" y1="107.8" x2="131.86" y2="107.8" fill="none" stroke="#fff" stroke-linecap="round" stroke-miterlimit="10" stroke-width="2"/>
        </g>
        <g>
          <path d="M41.77,97.54H77.06a12.4,12.4,0,1,1,24.8,0h17.93" fill="none" stroke="#fff" stroke-linecap="round" stroke-miterlimit="10" stroke-width="2"/>
        </g>
      </g>
    </g>
    <!-- верхнее облако (слой clouds 1 Outlines) -->
    <!-- сдвигаем в исходную точку движения Х=239, согласно референсу -->
    <g id="cloud-top" opacity="0" transform="translate(31.35, 0)">
      <!-- анимация непрозрачности из AE: 0 → 100%, 167ms, (0.33, 0.00, 0.67, 1.00) -->
      <animate attributeType="CSS"
        attributeName="opacity"
        calcMode="spline"
        values="0; 1"
        keySplines="0.33 0 0.67 1"
        dur="0.167s"
        begin="1.467s"
        additive="sum"
        fill="freeze"/>
      <!-- анимация положения из АЕ: 288.82 → 49.82 | 76.45 → 76.45, 2000ms, Linear -->
      <animateTransform
        dur="2s"
        begin="1.467s"
        calcMode="linear"
        attributeName="transform"
        type="translate"
        values="0, 0; -239, 0"
        additive="sum"/>
      <!-- линия под облаком -->
      <g>
        <!-- анимация положения из АЕ: 0 → 20, 2000ms, Linear -->
        <animateTransform
          dur="2s"
          begin="1.467s"
          calcMode="linear"
          attributeName="transform"
          type="translate"
          values="-20, 0; 0, 0"
          additive="sum"/>
        <line x1="258.96" y1="93.19" x2="298.74" y2="93.19" fill="none" stroke="#fff" stroke-linecap="round" stroke-miterlimit="10" stroke-width="2"/>
      </g>
      <g>
        <path d="M278.75,82.91H251.39a12.4,12.4,0,1,0-24.8,0H208.65" fill="none" stroke="#fff" stroke-linecap="round" stroke-miterlimit="10" stroke-width="2"/>
        <line x1="287.01" y1="82.91" x2="309.21" y2="82.91" fill="none" stroke="#fff" stroke-linecap="round" stroke-miterlimit="10" stroke-width="2"/>
      </g>
    </g>
  </g>
  <!-- Следы конденсата: слой tracks Outlines -->
  <g id="tracks">
    <!-- анимация непрозрачности из AE: 100 → 0%, 500ms, (0.33, 0.00, 0.67, 1.00) -->
    <animate attributeType="CSS"
      attributeName="opacity"
      calcMode="spline"
      values="1; 0"
      keySplines="0.33 0 0.67 1"
      dur="0.5s"
      begin="2.5s"
      fill="freeze" />
    <!-- верхний след (Group 3) -->
    <g id="track-top">
      <line x1="106.25" y1="179.49" x2="84.05" y2="179.49" fill="none" stroke="#fff" stroke-linecap="round" stroke-miterlimit="10" stroke-width="2" stroke-dasharray="24.2"/>
      <!-- анимация смещения из AE: 0 → 5, 100ms, (0.33, 0.00, 0.67, 1.00) -->
      <animate
        dur="0.2s"
        repeatCount="indefinite"
        calcMode="spline"
        attributeName="stroke-dashoffset"
        values="0; 5; 0"
        keySplines="0.33 0 0.67 1; 0.33 0 0.67 1" />
    </g>
    <!-- нижний след (Group 2) -->
    <g id="track-bottom">
      <line x1="106.25" y1="201.23" x2="84.05" y2="201.23" fill="none" stroke="#fff" stroke-linecap="round" stroke-miterlimit="10" stroke-width="2" stroke-dasharray="24.2"/>
      <!-- анимация смещения из AE: 0 → 5, 100ms, (0.33, 0.00, 0.67, 1.00), delay 33ms -->
      <animate
        dur="0.2s"
        begin="0.033s"
        repeatCount="indefinite"
        calcMode="spline"
        attributeName="stroke-dashoffset"
        values="0; 5; 0"
        keySplines="0.33 0 0.67 1; 0.33 0 0.67 1"/>
    </g>
    <!-- средний след (Group 1) -->
    <g id="track-middle">
      <line x1="106.25" y1="190.98" x2="68.77" y2="190.98" fill="none" stroke="#fff" stroke-linecap="round" stroke-miterlimit="10" stroke-width="2" stroke-dasharray="39.480"/>
      <!-- анимация смещения из AE: 0 → 5, 100ms, (0.33, 0.00, 0.67, 1.00), delay 67ms -->
      <animate
        dur="0.2s"
        begin="0.067s"
        repeatCount="indefinite"
        calcMode="spline"
        attributeName="stroke-dashoffset"
        values="0; 5; 0"
        keySplines="0.33 0 0.67 1; 0.33 0 0.67 1"
      />
    </g>
  </g>
  <!-- Земля: слой ground Outlines -->
  <g id="ground">
    <path d="M 289.94 327.88 L 244.88 327.88 L 212.8 296.58 C 212.459 296.292 212.027 296.134 211.58 296.134 C 211.133 296.134 210.701 296.292 210.36 296.58 L 200.16 306.81 C 199.848 307.08 199.448 307.229 199.035 307.229 C 198.622 307.229 198.222 307.08 197.91 306.81 C 191.577 300.087 185.243 293.363 178.91 286.64 C 178.477 286.274 177.927 286.072 177.36 286.072 C 176.793 286.072 176.243 286.274 175.81 286.64 C 167.003 295.187 158.197 303.733 149.39 312.28 C 149.079 312.552 148.679 312.702 148.265 312.702 C 147.851 312.702 147.451 312.552 147.14 312.28 C 146.263 311.307 145.387 310.333 144.51 309.36 C 144.195 309.071 143.782 308.911 143.355 308.911 C 142.928 308.911 142.515 309.071 142.2 309.36 C 136.343 315.907 130.487 322.453 124.63 329 L 80.78 329" fill="none" stroke="#fff" stroke-linecap="round" stroke-miterlimit="10" stroke-width="2">
      <!-- морфинг контура: 467ms -->
      <animate
        attributeName="d"
        attributeType="XML"
        values="
         M 289.94 327.88 L 244.88 327.88 L 212.8 296.58 C 212.459 296.292 212.027 296.134 211.58 296.134 C 211.133 296.134 210.701 296.292 210.36 296.58 L 200.16 306.81 C 199.848 307.08 199.448 307.229 199.035 307.229 C 198.622 307.229 198.222 307.08 197.91 306.81 C 191.577 300.087 185.243 293.363 178.91 286.64 C 178.477 286.274 177.927 286.072 177.36 286.072 C 176.793 286.072 176.243 286.274 175.81 286.64 C 167.003 295.187 158.197 303.733 149.39 312.28 C 149.079 312.552 148.679 312.702 148.265 312.702 C 147.851 312.702 147.451 312.552 147.14 312.28 C 146.263 311.307 145.387 310.333 144.51 309.36 C 144.195 309.071 143.782 308.911 143.355 308.911 C 142.928 308.911 142.515 309.071 142.2 309.36 C 136.343 315.907 130.487 322.453 124.63 329 L 80.78 329;
         M 289.94 328 L 271.982 328 L 254.024 328 C 248.038 328 242.052 328 236.066 328 C 230.08 328 224.094 328 218.108 328 L 200.15 328 C 199.29 328 198.59 328 197.9 328 C 191.567 328 185.233 328 178.9 328 C 178.525 328 178.198 328 177.905 328 C 177.612 328 177.353 328 177.114 328 C 176.874 328 176.655 328 176.44 328 C 176.226 328 176.018 328 175.8 328 C 165.033 328 154.267 328 143.5 328 C 143.282 328 143.085 328 142.904 328 C 142.722 328 142.557 328 142.403 328 C 142.249 328 142.106 328 141.97 328 C 141.834 328 141.704 328 141.575 328 C 141.447 328 141.32 328 141.19 328 L 80.78 328"
        dur="0.467s"
        calcMode="spline"
        keySplines="0.33 0 0 1"
        fill="freeze"
        begin="2.5s" />
      />
    </path>
  </g>
  <!-- Лыжи: слой skies Outlines -->
  <g id="skies" opacity="0">
    <!-- анимация непрозрачности из AE: 0 → 100%, 300ms, (0.33, 0.00, 0.00, 1.00) -->
    <animate attributeType="CSS"
      attributeName="opacity"
      calcMode="spline"
      values="0; 1"
      keySplines="0.33 0 0 1"
      dur="0.3s"
      begin="2.899s"
      additive="sum"
      fill="freeze"/>
    <!-- анимация положения из АЕ: -165.32 → 114.68 | 327.87 → 327.87, 467ms, (0.33, 0.00, 0.00, 1.00) -->
    <animateTransform
      dur="0.467s"
      calcMode="spline"
      attributeName="transform"
      type="translate"
      values="-280, 0; 0, 0"
      keySplines="0.33 0 0 1"
      begin="2.733s"
      fill="freeze"
      additive="sum"/>
    <path d="M91.14,327.79a2.2,2.2,0,0,1-2-2.36l13.66-193.17c1.1-15.49-4.8-21.92-8.75-24.47a1.35,1.35,0,0,1,.53-2.45C103,104,122.18,104,120,134.19L106.43,326.67a2.2,2.2,0,0,1-2.35,2Z" fill="#fff"/>
    <path d="M124.5,328.17a2.2,2.2,0,0,1-2.17-2.23l2.24-193.63c0.19-15.53-6.07-21.61-10.16-23.91a1.35,1.35,0,0,1,.39-2.47c8.36-1.9,27.49-3,27.15,27.28l-2.25,192.93a2.2,2.2,0,0,1-2.22,2.18Z" fill="#fff"/>
  </g>
  <!-- Лист и кресло (появляются вместе, объединяем в группу) -->
  <g>
    <!-- анимация положения из АЕ: 88.68 → 208.68 | 245.87 → 245.87, 467ms, (0.33, 0.00, 0.00, 1.00) -->
    <animateTransform
      dur="0.467s"
      calcMode="spline"
      attributeName="transform"
      type="translate"
      values="-297.36, 0; 0, 0"
      keySplines="0.33 0 0 1"
      begin="2.733s"
      fill="freeze"
      additive="sum"/>
    <!-- Кресло: слой armchair Outlines -->
    <g id="chair" opacity="0">
      <!-- анимация непрозрачности из AE: 0 → 100%, 467ms, (0.33, 0.00, 0.00, 1.00) -->
      <animate attributeType="CSS"
        attributeName="opacity"
        calcMode="spline"
        values="0; 1"
        keySplines="0.33 0 0 1"
        dur="0.467s"
        begin="2.733s"
        additive="sum"
        fill="freeze"/>
      <path d="M257.5,259.82H196.76V245.63h55.09a9.92,9.92,0,0,1,9.9,9.93,4.26,4.26,0,0,1-4.25,4.25" fill="#a67ee5"/>
      <path d="M257.5,259.82H196.76V245.63h55.09a9.92,9.92,0,0,1,9.9,9.93A4.26,4.26,0,0,1,257.5,259.82Z" fill="none" stroke="#fff" stroke-miterlimit="10" stroke-width="2"/>
      <polygon points="185.47 328.31 171.5 328.31 165.19 286.72 179.16 286.72 185.47 328.31" fill="#a67ee5"/>
      <polygon points="185.47 328.31 171.5 328.31 165.19 286.72 179.16 286.72 185.47 328.31" fill="none" stroke="#fff" stroke-miterlimit="10" stroke-width="2"/>
      <polygon points="235.03 328.31 221.06 328.31 214.76 286.72 228.72 286.72 235.03 328.31" fill="#a67ee5"/>
      <polygon points="235.03 328.31 221.06 328.31 214.76 286.72 228.72 286.72 235.03 328.31" fill="none" stroke="#fff" stroke-miterlimit="10" stroke-width="2"/>
      <path d="M281.33,272.45H225.44a5.59,5.59,0,0,1-5.53-4.77l-10.86-72.24a17.71,17.71,0,0,0-12.49-31.31H141.48L141.16,267l15.77,23.35,47.19,8.39a12.3,12.3,0,0,0,4.22.75h73a13.53,13.53,0,0,0,0-27.06" fill="#a67ee5"/>
      <path d="M281.33,272.45H225.44a5.59,5.59,0,0,1-5.53-4.77l-10.86-72.24a17.71,17.71,0,0,0-12.49-31.31H141.48L141.16,267l15.77,23.35,47.19,8.39a12.3,12.3,0,0,0,4.22.75h73A13.53,13.53,0,0,0,281.33,272.45Z" fill="none" stroke="#fff" stroke-miterlimit="10" stroke-width="2"/>
      <path d="M162.42,267.69l-10.86-72.24a17.71,17.71,0,1,0-29-13.61,18,18,0,0,0,.79,5.25L138.65,289a12.36,12.36,0,0,0,12.21,10.54h73a13.53,13.53,0,0,0,0-27.05H167.95a5.62,5.62,0,0,1-5.53-4.78" fill="#a67ee5"/>
      <path d="M162.42,267.69l-10.86-72.24a17.71,17.71,0,1,0-29-13.61,18,18,0,0,0,.79,5.25L138.65,289a12.36,12.36,0,0,0,12.21,10.54h73a13.53,13.53,0,0,0,0-27.05H167.95A5.62,5.62,0,0,1,162.42,267.69Z" fill="none" stroke="#fff" stroke-miterlimit="10" stroke-width="2"/>
      <path d="M206.26,259.82h-72l-2.13-14.19H200.6a9.92,9.92,0,0,1,9.9,9.93,4.26,4.26,0,0,1-4.25,4.25" fill="#a67ee5"/>
      <path d="M206.26,259.82h-72l-2.13-14.19H200.6a9.92,9.92,0,0,1,9.9,9.93A4.26,4.26,0,0,1,206.26,259.82Z" fill="none" stroke="#fff" stroke-miterlimit="10" stroke-width="2"/>
      <line x1="151.57" y1="195.44" x2="209.05" y2="195.44" fill="none" stroke="#fff" stroke-linecap="round" stroke-miterlimit="10" stroke-width="2"/>
    </g>
    <!-- Лист: слой leaf Outlines -->
    <!-- сдвигаем transform-origin перед тем, как задавать анимации (чтобы избежать искажений при трансформациях поворота) -->
    <g id="leaf" opacity="0" transform="translate(54.48, 171.47)">
      <!-- анимация непрозрачности из AE: 0 → 100%, 367ms, (0.33, 0.00, 0.67, 1.00) -->
      <animate attributeType="CSS"
        attributeName="opacity"
        calcMode="spline"
        values="0; 1"
        keySplines="0.33 0 0.67 1"
        dur="0.367s"
        begin="2.832s"
        additive="sum"
        fill="freeze"/>
      <!-- анимация поворота из AE: -6.42 → 5º, 467ms, (0.33, 0.00, 0.67, 1.00) -->
      <animateTransform
        dur="0.467s"
        calcMode="spline"
        attributeName="transform"
        type="rotate"
        values="-6.42, 94.1, 154.9; 5, 94.1, 154.9;"
        keySplines="0.33 0 0.67 1"
        begin="2.733s"
        additive="sum"/>
      <!-- анимация поворота из AE: 5 → -2.5º, 333ms, (0.33, 0.00, 0.67, 1.00) -->
      <animateTransform
        dur="0.333s"
        calcMode="spline"
        attributeName="transform"
        type="rotate"
        values="5, 94.1, 154.9; -2.5, 94.1, 154.9;"
        keySplines="0.33 0 0.67 1"
        begin="3.2s"
        additive="sum"/>
      <!-- анимация поворота из AE: -2.5 → 1.2º, 367ms, (0.33, 0.00, 0.67, 1.00) -->
      <animateTransform
        dur="0.367s"
        calcMode="spline"
        attributeName="transform"
        type="rotate"
        values="-2.5, 94.1, 154.9; 1.2, 94.1, 154.9;"
        keySplines="0.33 0 0.67 1"
        begin="3.533s"
        additive="sum"/>
      <!-- анимация поворота из AE: 1.2 → 0º, 367ms, (0.33, 0.00, 0.67, 1.00) -->
      <!-- фоновая анимация (продолжается покачивание листа), зацикливаем -->
      <animateTransform
        dur="0.734s"
        repeatCount="indefinite"
        calcMode="spline"
        attributeName="transform"
        type="rotate"
        values="1.2, 94.1, 154.9; 0, 94.1, 154.9; 1.2, 94.1, 154.9;"
        keySplines="0.33 0 0.67 1; 0.33 0 0.67 1"
        begin="3.9s"
        additive="sum"/>
      <!-- после анимаций сдвигаем центр координат листа обратно -->
      <g transform="translate(-54.48, -171.47)">
        <path d="M79.18,194A131,131,0,0,1,94.77,220.9a255,255,0,0,1-20.08-23.55,259,259,0,0,1-17.07-25.88A131.72,131.72,0,0,1,79.18,194" fill="#36e69a"/>
        <path d="M80.94,214.39a127.19,127.19,0,0,1,22.8,20.49A242.09,242.09,0,0,1,77.9,219.17a235.86,235.86,0,0,1-23.42-18.7,119.82,119.82,0,0,1,26.46,13.92" fill="#36e69a"/>
        <path d="M93.66,205.48a258.38,258.38,0,0,0,10.08,29.39,125.63,125.63,0,0,0-4.5-30.52,135.9,135.9,0,0,0-12.06-29.44,260.33,260.33,0,0,0,6.47,30.57" fill="#36e69a"/>
        <path d="M107.32,213.52a250.14,250.14,0,0,0,2.06,30.67,119.93,119.93,0,0,0,3.76-30.05,131.24,131.24,0,0,0-4-31.36,238.1,238.1,0,0,0-1.87,30.74" fill="#25b774"/>
        <path d="M83.08,229.56a121.93,121.93,0,0,1,26.29,14.64A225.91,225.91,0,0,1,81.21,235a228.11,228.11,0,0,1-26.37-12.69,113.61,113.61,0,0,1,28.25,7.29" fill="#25b774"/>
        <path d="M88.06,243.83A118.11,118.11,0,0,1,115.62,255a211,211,0,0,1-28.78-5.6,220.87,220.87,0,0,1-27.42-9.33,114,114,0,0,1,28.65,3.73" fill="#25b774"/>
        <path d="M118.71,224.79a238,238,0,0,0-3.1,30.25,117.11,117.11,0,0,0,8.82-28.54,127.44,127.44,0,0,0,1.42-31.19,213.92,213.92,0,0,0-7.15,29.48" fill="#25b774"/>
        <path d="M98.86,262a118.24,118.24,0,0,1,27.07,12.34,212.3,212.3,0,0,1-28.53-6.79,220.78,220.78,0,0,1-27-10.45A114.06,114.06,0,0,1,98.86,262" fill="#068e4d"/>
        <path d="M130.27,244.29a236.56,236.56,0,0,0-4.34,30.1,116.94,116.94,0,0,0,10-28.16,127.42,127.42,0,0,0,2.71-31.1,214.43,214.43,0,0,0-8.36,29.16" fill="#068e4d"/>
        <path d="M108.9,280.69a118.21,118.21,0,0,1,26.54,13.47,213.62,213.62,0,0,1-28.23-8,221.65,221.65,0,0,1-26.55-11.57,113.82,113.82,0,0,1,28.24,6.08" fill="#068e4d"/>
        <path d="M141,264.26a236.09,236.09,0,0,0-5.58,29.9,117.46,117.46,0,0,0,11.15-27.73,127.2,127.2,0,0,0,4-31A214.24,214.24,0,0,0,141,264.26" fill="#068e4d"/>
        <path d="M92.62,217.67A529.26,529.26,0,0,1,149.48,328" fill="none" stroke="#36e69a" stroke-linecap="round" stroke-linejoin="round" stroke-width="2"/>
      </g>
    </g>
  </g>
</svg>
