<svg xmlns="http://www.w3.org/2000/svg" xmlns:xlink="http://www.w3.org/1999/xlink" viewBox="0 0 350 330">
<!-- Comps/_SVG/illn-3 Comp1 -->
  <!-- Закрытая крышка чемодана: слой top0 Outlines -->
  <g id="suitcase-cover-closed">
    <!-- анимация непрозрачности (изчезание закрытой крышки) -->
    <animate attributeType="CSS"
      attributeName="opacity"
      calcMode="linear"
      values="1; 0"
      dur="0.001s"
      begin="0.533s"
      fill="freeze"/>
    <path d="M225.88,258.06H82.68a11.62,11.62,0,0,0-11.57,11.61v19.75H237.44V269.66a11.62,11.62,0,0,0-11.56-11.61" fill="#a67ee5"/>
    <path d="M225.88,258.06H82.68a11.62,11.62,0,0,0-11.57,11.61v19.75H237.44V269.66A11.62,11.62,0,0,0,225.88,258.06Z" fill="none" stroke="#fff" stroke-miterlimit="10" stroke-width="2"/>
    <path d="M267.11,258.06H119.23a11.81,11.81,0,0,0-11.93,11.61v19.75H279V269.66a11.81,11.81,0,0,0-11.93-11.61" fill="#a67ee5"/>
    <path d="M267.11,258.06H119.23a11.81,11.81,0,0,0-11.93,11.61v19.75H279V269.66A11.81,11.81,0,0,0,267.11,258.06Z" fill="none" stroke="#fff" stroke-miterlimit="10" stroke-width="2"/>
    <path d="M278.74,279.41a5.34,5.34,0,1,0-5.32-5.34,5.32,5.32,0,0,0,5.32,5.34" fill="#a67ee5"/>
    <ellipse cx="278.74" cy="274.07" rx="5.31" ry="5.34" fill="none" stroke="#fff" stroke-miterlimit="10" stroke-width="2"/>
    <path d="M277.62,269.66v9.75H266.89a5.72,5.72,0,0,1-5.71-5.73V258.06h4.88a11.61,11.61,0,0,1,11.56,11.61" fill="#a67ee5"/>
    <path d="M277.62,269.66v9.75H266.89a5.72,5.72,0,0,1-5.71-5.73V258.06h4.88A11.61,11.61,0,0,1,277.62,269.66Z" fill="none" stroke="#fff" stroke-miterlimit="10" stroke-width="2"/>
  </g>
  <!-- Открытая крышка чемодана: слой top Outlines -->
  <g id="suitcase-cover-opened" opacity="0">
    <!-- анимация непрозрачности (появление открытой крышки) -->
    <animate attributeType="CSS"
      attributeName="opacity"
      calcMode="linear"
      values="0; 1"
      dur="0.001s"
      begin="0.533s"
      fill="freeze"/>
    <path d="M253.93,232.11a5.69,5.69,0,1,0-5.69-5.69,5.69,5.69,0,0,0,5.69,5.69" fill="#a67ee5"/>
    <circle cx="253.93" cy="226.42" r="5.69" fill="none" stroke="#fff" stroke-miterlimit="10" stroke-width="2"/>
    <path d="M240.3,210.48H67.19a12,12,0,0,0-12,11.9V276a13,13,0,0,0,13,13h184V222.38a12,12,0,0,0-11.94-11.9" fill="#a67ee5"/>
    <path d="M240.3,210.48H67.19a12,12,0,0,0-12,11.9V276a13,13,0,0,0,13,13h184V222.38A12,12,0,0,0,240.3,210.48Z" fill="none" stroke="#fff" stroke-miterlimit="10" stroke-width="2"/>
    <path d="M70.24,289V225.49a15,15,0,0,1,15-15h0.5" fill="none" stroke="#fff" stroke-width="2"/>
  </g>
  <!-- Группируем содержимое чемодана (появляется одновременно) -->
  <g id="suitcase-contents" opacity="0">
    <animate attributeType="CSS"
      attributeName="opacity"
      calcMode="linear"
      values="0; 1"
      dur="0.001s"
      begin="0.533s"
      fill="freeze"/>
    <!-- Цветы: слой flowers Outlines -->
    <!-- смещаем центр координат перед анимациями -->
    <g id="flowers" transform="translate(177.24, 162.63)">
      <!-- анимации поворота: опорная точка 4.3, 127.6 -->
      <animateTransform
        id="flowersUp1"
        dur="0.3s"
        calcMode="spline"
        attributeName="transform"
        type="rotate"
        values="51.64, 4.3, 127.6; -10, 4.3, 127.6"
        keySplines="0.45 0 0.85 1"
        begin="0.533s"
        additive="sum"/>
      <animateTransform
        id="flowersDown1"
        dur="0.333s"
        calcMode="spline"
        attributeName="transform"
        type="rotate"
        values="-10, 4.3, 127.6; 4, 4.3, 127.6"
        keySplines="0.33 0 0.67 1"
        begin="flowersUp1.end"
        additive="sum"/>
      <animateTransform
        id="flowersUp2"
        dur="0.333s"
        calcMode="spline"
        attributeName="transform"
        type="rotate"
        values="4, 4.3, 127.6; -2, 4.3, 127.6"
        keySplines="0.33 0 0.67 1"
        begin="flowersDown1.end"
        additive="sum"/>
      <animateTransform
        id="flowersDown2"
        dur="0.4s"
        calcMode="spline"
        attributeName="transform"
        type="rotate"
        values="-2, 4.3, 127.6; 0, 4.3, 127.6"
        keySplines="0.33 0 0.67 1"
        begin="flowersUp2.end"
        additive="sum"
        fill="freeze"/>
      <!-- смещаем центр координат обратно после анимаций -->
      <g transform="translate(-177.24, -162.63)">
        <path d="M180.73,277.8s8.3-74.59,39.71-90" fill="none" stroke="#fff" stroke-linecap="round" stroke-linejoin="round" stroke-width="2"/>
        <!-- Верхний цветок: Group 3 -->
        <!-- смещаем центр координат перед анимацией -->
        <g id="bud-top" transform="translate(217.764, 162.630)">
          <!-- анимация поворота: опорная точка -16.8, 12.3 -->
          <animateTransform
            dur="0.167s"
            calcMode="spline"
            attributeName="transform"
            type="rotate"
            values="36, -16.8, 12.3; 0, -16.8, 12.3"
            keySplines="0.33 0 0.67 1"
            begin="0.533s"
            additive="sum"
            fill="freeze"/>
          <!-- смещаем центр координат обратно после анимации -->
          <g transform="translate(-217.764, -162.630)">
            <path d="M217.95,187.12l9.27-24.49a22,22,0,0,1,8.72,3,7.87,7.87,0,0,1,9.72,12.33,22.14,22.14,0,0,1,.86,9.18l-26,3.3a2.45,2.45,0,0,1-2.6-3.29" fill="#3b7bf2"/>
          </g>
        </g>
        <path d="M178.24,287.63s6.89-44.68,37.95-56.53" fill="none" stroke="#fff" stroke-linecap="round" stroke-linejoin="round" stroke-width="2"/>
        <!-- Нижний цветок: Group 1 -->
        <!-- смещаем центр координат перед анимацией -->
        <g id="bud-bottom" transform="translate(210.597, 215.530)">
          <!-- анимация поворота: опорная точка -12, 7.7 -->
          <animateTransform
            dur="0.167s"
            calcMode="spline"
            attributeName="transform"
            type="rotate"
            values="26, -12, 7.7; 0, -12, 7.7"
            keySplines="0.33 0 0.67 1"
            begin="0.533s"
            additive="sum"
            fill="freeze"/>
          <!-- смещаем центр координат обратно после анимации -->
          <g transform="translate(-210.597, -215.530)">
            <path d="M210.85,232l9-16.47a16.66,16.66,0,0,1,6.13,2.93,5.93,5.93,0,0,1,4-.42,5.67,5.67,0,0,1,4.26,6.85,5.54,5.54,0,0,1-2.29,3.23,15.1,15.1,0,0,1-.21,6.58l-19.34-.11a1.76,1.76,0,0,1-1.6-2.58" fill="#3b7bf2"/>
          </g>
        </g>
      </g>
    </g>
    <!-- Нить: слой thread Outlines -->
    <line id="thread" x1="100" y1="318" x2="107.65" y2="289.02" fill="none" stroke="#fff" stroke-linecap="round" stroke-miterlimit="10" stroke-width="2">
      <!-- анимации контура -->
      <animate id="threadY1"
        attributeName="y1"
        calcMode="spline"
        values="318; 141.5"
        keySplines="0.33 0 0.67 1"
        dur="0.566s"
        begin="0.533s"/>
      <animate id="threadY2"
        attributeName="y1"
        calcMode="spline"
        values="141.5; 148.2"
        keySplines="0.33 0 0.67 1"
        dur="0.3s"
        begin="threadY1.end"/>
      <animate id="threadY3"
        attributeName="y1"
        calcMode="spline"
        values="148.2; 150.3"
        keySplines="0.33 0 0.67 1"
        dur="0.266s"
        begin="threadY2.end"/>
      <animate id="threadY4"
        attributeName="y1"
        calcMode="spline"
        values="150.3; 133"
        keySplines="0.33 0 0.67 1"
        dur="0.566s"
        begin="threadY3.end"/>
      <animate id="threadY5"
        attributeName="y1"
        calcMode="spline"
        values="133; 166.71"
        keySplines="0.33 0 0.67 1"
        dur="0.3s"
        begin="threadY4.end"
        fill="freeze"/>
      <animate id="threadX1"
        attributeName="x1"
        calcMode="spline"
        values="100; 107.65"
        keySplines="0.33 0 0.67 1"
        dur="0.566s"
        begin="0.533s"/>
      <animate id="threadX2"
        attributeName="x1"
        calcMode="spline"
        values="107.65; 114.8"
        keySplines="0.33 0 0.67 1"
        dur="0.3s"
        begin="threadX1.end"/>
      <animate id="threadX3"
        attributeName="x1"
        calcMode="spline"
        values="114.8; 100"
        keySplines="0.33 0 0.67 1"
        dur="0.266s"
        begin="threadX2.end"/>
      <animate id="threadX4"
        attributeName="x1"
        calcMode="spline"
        values="100; 111"
        keySplines="0.33 0 0.67 1"
        dur="0.566s"
        begin="threadX3.end"/>
      <animate id="threadX5"
        attributeName="x1"
        calcMode="spline"
        values="111; 107.65"
        keySplines="0.33 0 0.67 1"
        dur="0.3s"
        begin="threadX4.end"
        fill="freeze"/>
    </line>
    <!-- Воздушный шар: слой baloon Outlines -->
    <!-- смещаем центр координат перед анимацией -->
    <g id="baloon" transform="translate(73.240, 77.810)">
      <!-- анимации положения -->
      <animateTransform
        id="baloonTranslate1"
        dur="0.567s"
        calcMode="spline"
        attributeName="transform"
        type="translate"
        values="0, 161; 0, 0"
        keySplines="0.5 0 0.87 1"
        begin="0.533s"
        additive="sum"/>
      <animateTransform
        id="baloonTranslate2"
        dur="0.301s"
        calcMode="spline"
        attributeName="transform"
        type="translate"
        values="0, 0; 5, 25"
        keySplines="0.33 0 0.67 1"
        begin="baloonTranslate1.end"
        additive="sum"/>
      <animateTransform
        id="baloonTranslate3"
        dur="0.241s"
        calcMode="spline"
        attributeName="transform"
        type="translate"
        values="5, 25; -7.67, -5.83"
        keySplines="0.33 0 0.67 1"
        begin="baloonTranslate2.end"
        additive="sum"/>
      <animateTransform
        id="baloonTranslate4"
        dur="0.241s"
        calcMode="spline"
        attributeName="transform"
        type="translate"
        values="-7.67, -5.83; -3.84, 12.08"
        keySplines="0.33 0 0.67 1"
        begin="baloonTranslate3.end"
        additive="sum"/>
      <animateTransform
        id="baloonTranslate5"
        dur="0.241s"
        calcMode="spline"
        attributeName="transform"
        type="translate"
        values="-3.84, 12.08; 2.86, -0.8"
        keySplines="0.33 0 0.67 1"
        begin="baloonTranslate4.end"
        additive="sum"/>
      <animateTransform
        id="baloonTranslate6"
        dur="0.241s"
        calcMode="spline"
        attributeName="transform"
        type="translate"
        values="2.86, -0.8; 0.22, 4.66"
        keySplines="0.33 0 0.67 1"
        begin="baloonTranslate5.end"
        additive="sum"/>
      <animateTransform
        id="baloonTranslate7"
        dur="0.169s"
        calcMode="spline"
        attributeName="transform"
        type="translate"
        values="0.22, 4.66; 0, 0"
        keySplines="0.33 0 0.67 1"
        begin="baloonTranslate6.end"
        additive="sum"
        fill="freeze"/>
      <!-- анимации поворота: опорная точка 34.8, 85.2 -->
      <animateTransform
        id="baloonRotate1"
        dur="0.7s"
        calcMode="spline"
        attributeName="transform"
        type="rotate"
        values="45, 34.8, 85.2; -11.72, 34.8, 85.2"
        keySplines="0.5 0 0.67 1"
        begin="0.533s"
        additive="sum"/>
      <animateTransform
        id="baloonRotate2"
        dur="0.3s"
        calcMode="spline"
        attributeName="transform"
        type="rotate"
        values="-11.72, 34.8, 85.2; 6.06, 34.8, 85.2"
        keySplines="0.33 0 0.67 1"
        begin="baloonRotate1.end"
        additive="sum"/>
      <animateTransform
        id="baloonRotate3"
        dur="0.3s"
        calcMode="spline"
        attributeName="transform"
        type="rotate"
        values="6.06, 34.8, 85.2; -5.28, 34.8, 85.2"
        keySplines="0.33 0 0.67 1"
        begin="baloonRotate2.end"
        additive="sum"/>
      <animateTransform
        id="baloonRotate4"
        dur="0.345s"
        calcMode="spline"
        attributeName="transform"
        type="rotate"
        values="-5.28, 34.8, 85.2; 4.67, 34.8, 85.2"
        keySplines="0.33 0 0.67 1"
        begin="baloonRotate3.end"
        additive="sum"/>
      <animateTransform
        id="baloonRotate5"
        dur="0.355s"
        calcMode="spline"
        attributeName="transform"
        type="rotate"
        values="4.67, 34.8, 85.2; 0, 34.8, 85.2"
        keySplines="0.33 0 0.67 1"
        begin="baloonRotate4.end"
        additive="sum"
        fill="freeze"/>
      <!-- смещаем центр координат обратно после анимации -->
      <g transform="translate(-73.240, -77.810)">
        <path d="M106.58,161.87l-2.19,3.79a1.34,1.34,0,0,0,1.17,2h4.37a1.34,1.34,0,0,0,1.16-2l-2.18-3.79a1.35,1.35,0,0,0-2.33,0" fill="#fff"/>
        <path d="M107.74,79.42a32.91,32.91,0,0,1,32.9,32.89c0,18.17-15.09,48.89-33.25,48.89s-32.55-30.73-32.55-48.89a32.91,32.91,0,0,1,32.9-32.89m0-1.61a34.54,34.54,0,0,0-34.5,34.5c0,9.51,3.8,22.1,9.68,32.07,7,11.88,15.68,18.42,24.46,18.42s17.6-6.54,24.81-18.4c6.1-10,10.05-22.64,10.05-32.09a34.54,34.54,0,0,0-34.5-34.5" fill="#fff"/>
        <path d="M96.06,112.39c0-18.16,5.23-32.89,11.68-32.89a32.91,32.91,0,0,0-32.9,32.89c0,18.17,14.38,48.89,32.55,48.89h0.17c-6.43-.19-11.5-30.77-11.5-48.89" fill="#76abff"/>
        <path d="M140.64,112.39a32.91,32.91,0,0,0-32.9-32.89c6.45,0,11.68,14.73,11.68,32.89s-5.29,48.48-11.68,48.87c18-.39,32.9-30.82,32.9-48.87" fill="#1553b7"/>
        <path d="M119.42,112.39c0-18.16-5.23-32.89-11.68-32.89S96.06,94.23,96.06,112.39s5.07,48.69,11.5,48.89h0.18c6.39-.4,11.68-30.83,11.68-48.88" fill="#3b7bf2"/>
        <path d="M100.54,105.36a5.7,5.7,0,1,0,5.7,5.7,5.39,5.39,0,0,0-5.7-5.7m0,8c-1.86,0-3.06-.93-3.06-2.29s1.21-2.29,3.06-2.29,3.07,0.93,3.07,2.29-1.25,2.29-3.07,2.29" fill="#fff"/>
        <path d="M114.74,105.36a1.78,1.78,0,0,1,1.46,2.8L102.87,127.5a1.79,1.79,0,0,1-2.94-2l13.34-19.34a1.77,1.77,0,0,1,1.47-.77" fill="#fff"/>
        <path d="M116.21,116.88a5.7,5.7,0,1,0,5.7,5.7,5.4,5.4,0,0,0-5.7-5.7m0,8c-1.86,0-3.06-.93-3.06-2.29s1.21-2.29,3.06-2.29,3.07,0.9,3.07,2.29-1.21,2.29-3.07,2.29" fill="#fff"/>
      </g>
    </g>


  </g>
  <!-- Нижняя часть чемодана: слой bottom Outlines -->
  <g id="suitcase-bottom">
    <path d="M280.29,318.62a5.72,5.72,0,1,0-5.12-5.69,5.43,5.43,0,0,0,5.12,5.69" fill="#a67ee5"/>
    <ellipse cx="280.29" cy="312.93" rx="5.12" ry="5.69" fill="none" stroke="#fff" stroke-miterlimit="10" stroke-width="2"/>
    <path d="M230.22,328.86h-148a11.85,11.85,0,0,1-11.95-11.67V289H242.16v28.17a11.84,11.84,0,0,1-11.94,11.67" fill="#a67ee5"/>
    <path d="M230.22,328.86h-148a11.85,11.85,0,0,1-11.95-11.67V289H242.16v28.17A11.84,11.84,0,0,1,230.22,328.86Z" fill="none" stroke="#fff" stroke-miterlimit="10" stroke-width="2"/>
    <path d="M266.72,328.86h-147a11.81,11.81,0,0,1-11.87-11.67V289H278.58v28.17a11.79,11.79,0,0,1-11.86,11.67" fill="#a67ee5"/>
    <path d="M266.72,328.86h-147a11.81,11.81,0,0,1-11.87-11.67V289H278.58v28.17A11.79,11.79,0,0,1,266.72,328.86Z" fill="none" stroke="#fff" stroke-miterlimit="10" stroke-width="2"/>
    <path d="M215,314.07H180.49a4.27,4.27,0,0,1-4.35-4.16V298.21a1.24,1.24,0,0,1,1.27-1.22h2.88a1.25,1.25,0,0,1,1.27,1.22v10a1.33,1.33,0,0,0,1.35,1.29h29.71a1.33,1.33,0,0,0,1.35-1.29v-10a1.24,1.24,0,0,1,1.27-1.22h2.88a1.25,1.25,0,0,1,1.27,1.22V309.9a4.27,4.27,0,0,1-4.35,4.16" fill="#a67ee5"/>
    <path d="M215,314.07H180.49a4.27,4.27,0,0,1-4.35-4.16V298.21a1.24,1.24,0,0,1,1.27-1.22h2.88a1.25,1.25,0,0,1,1.27,1.22v10a1.33,1.33,0,0,0,1.35,1.29h29.71a1.33,1.33,0,0,0,1.35-1.29v-10a1.24,1.24,0,0,1,1.27-1.22h2.88a1.25,1.25,0,0,1,1.27,1.22V309.9A4.27,4.27,0,0,1,215,314.07Z" fill="none" stroke="#fff" stroke-miterlimit="10" stroke-width="2"/>
    <rect x="138.58" y="282.19" width="9.1" height="12.52" fill="#a67ee5"/>
    <rect x="138.58" y="282.19" width="9.1" height="12.52" fill="none" stroke="#fff" stroke-miterlimit="10" stroke-width="2"/>
    <rect x="247.85" y="282.19" width="9.1" height="12.52" fill="#a67ee5"/>
    <rect x="247.85" y="282.19" width="9.1" height="12.52" fill="none" stroke="#fff" stroke-miterlimit="10" stroke-width="2"/>
    <path d="M278.58,317.11v-9.87h-10.4a5.67,5.67,0,0,0-5.53,5.8v15.82h4.73c6.16,0,11.2-5.29,11.2-11.75" fill="#a67ee5"/>
    <path d="M278.58,317.11v-9.87h-10.4a5.67,5.67,0,0,0-5.53,5.8v15.82h4.73C273.54,328.86,278.58,323.58,278.58,317.11Z" fill="none" stroke="#fff" stroke-miterlimit="10" stroke-width="2"/>
    <path d="M100,301.54H79.22a1,1,0,0,1-1-1V298a1,1,0,0,1,1-1H100a1,1,0,0,1,1,1v2.58a1,1,0,0,1-1,1" fill="#a67ee5"/>
    <path d="M100,301.54H79.22a1,1,0,0,1-1-1V298a1,1,0,0,1,1-1H100a1,1,0,0,1,1,1v2.58A1,1,0,0,1,100,301.54Z" fill="none" stroke="#fff" stroke-miterlimit="10" stroke-width="2"/>
  </g>
  <!-- Земля: слой ground Outlines -->
  <g id="ground-line">
    <line x1="46.24" y1="329" x2="303.76" y2="329" fill="none" stroke="#fff" stroke-linecap="round" stroke-linejoin="round" stroke-width="2"/>
  </g>
</svg>
